<?xml version="1.0" encoding="UTF-8"?>
<svg version="1.1" xmlns="http://www.w3.org/2000/svg" width="32" height="32">
<path d="M0 0 C10.56 0 21.12 0 32 0 C32 10.56 32 21.12 32 32 C21.44 32 10.88 32 0 32 C0 21.44 0 10.88 0 0 Z " fill="#267194" transform="translate(0,0)"/>
<path d="M0 0 C10.56 0 21.12 0 32 0 C32 10.56 32 21.12 32 32 C21.44 32 10.88 32 0 32 C0 21.44 0 10.88 0 0 Z M4 6 C1.67579178 10.64841644 2.58561305 16.94102593 3 22 C4.20987951 25.6230631 6.35864815 27.47998499 9.3125 29.875 C13.33179823 31.55749693 16.76203827 31.85650387 20.8984375 30.2734375 C24.96836848 28.16119484 27.02546154 26.06556887 29 22 C29.82534539 16.47539077 29.7015139 11.53793432 27.375 6.4375 C23.75204221 2.71920122 20.7521455 1.25957711 15.625 0.5 C10.93093597 1.14745711 7.66976144 3.04628957 4 6 Z " fill="#F8F8F7" transform="translate(0,0)"/>
<path d="M0 0 C1.98 0.66 3.96 1.32 6 2 C5.67 2.99 5.34 3.98 5 5 C5.66 5.33 6.32 5.66 7 6 C7.3482689 10.8757646 6.58621597 13.84358148 4 18 C1.39070749 20.44621173 0.62968776 21 -3 21 C-3.22036864 17.14354879 -2.60355101 14.50776784 -1 11 C-1.763125 11.33 -2.52625 11.66 -3.3125 12 C-6 13 -6 13 -9 13 C-8.67 12.01 -8.34 11.02 -8 10 C-8.99 9.67 -9.98 9.34 -11 9 C-11 8.01 -11 7.02 -11 6 C-3.57142857 2.71428571 -3.57142857 2.71428571 0 2 C0 1.34 0 0.68 0 0 Z " fill="#2C3435" transform="translate(18,6)"/>
<path d="M0 0 C3.5795791 2.38638607 5.01200609 3.92776335 6.8125 7.875 C7.56911264 13.50327157 7.56133445 18.23332447 5.1875 23.4375 C1.54201104 27.17892288 -1.46467136 28.62440674 -6.625 29.375 C-11.11650016 28.74461401 -13.99457693 27.07634767 -17.1875 23.875 C-19.28864379 20.65416775 -19.43136659 18.0521824 -19.375 14.25 C-19.36855469 13.28835938 -19.36210937 12.32671875 -19.35546875 11.3359375 C-19.1875 8.875 -19.1875 8.875 -18.1875 6.875 C-17.1975 7.205 -16.2075 7.535 -15.1875 7.875 C-15.5175 8.205 -15.8475 8.535 -16.1875 8.875 C-16.25994053 10.89464199 -16.27127188 12.91667124 -16.25 14.9375 C-16.23646484 16.59458984 -16.23646484 16.59458984 -16.22265625 18.28515625 C-16.21105469 19.13980469 -16.19945312 19.99445312 -16.1875 20.875 C-15.1975 21.205 -14.2075 21.535 -13.1875 21.875 C-13.1875 22.535 -13.1875 23.195 -13.1875 23.875 C-8.75968119 25.66721238 -5.80750389 26.28108814 -1.1875 24.875 C1.86770056 22.31523736 3.66050487 20.44478576 4.05078125 16.4140625 C4.35470671 10.44148708 4.35470671 10.44148708 1.9375 5.1875 C-0.05482347 3.69983571 -0.05482347 3.69983571 -2.1875 3.875 C-2.1875 2.885 -2.1875 1.895 -2.1875 0.875 C-5.4875 1.535 -8.7875 2.195 -12.1875 2.875 C-12.5175 3.865 -12.8475 4.855 -13.1875 5.875 C-13.8475 5.875 -14.5075 5.875 -15.1875 5.875 C-14.9375 3.5 -14.9375 3.5 -14.1875 0.875 C-10.05330471 -2.46415773 -4.71235131 -1.66318282 0 0 Z " fill="#41484B" transform="translate(22.1875,2.125)"/>
<path d="M0 0 C0 0.99 0 1.98 0 3 C-0.66 3 -1.32 3 -2 3 C-2 3.66 -2 4.32 -2 5 C-8.5 9 -8.5 9 -13 9 C-13.33 9.99 -13.66 10.98 -14 12 C-14 10.35 -14 8.7 -14 7 C-14.66 6.67 -15.32 6.34 -16 6 C-16.33 6.66 -16.66 7.32 -17 8 C-16.67 6.35 -16.34 4.7 -16 3 C-15.01 2.67 -14.02 2.34 -13 2 C-13 2.99 -13 3.98 -13 5 C-12.34 5 -11.68 5 -11 5 C-10.814375 4.0409375 -10.814375 4.0409375 -10.625 3.0625 C-10.41875 2.381875 -10.2125 1.70125 -10 1 C-6.78548731 -0.60725635 -3.56387464 -0.05748185 0 0 Z " fill="#1D6C93" transform="translate(20,3)"/>
<path d="M0 0 C3.18318204 2.30780698 4.74863308 3.63306253 5.47265625 7.5703125 C5.65797794 13.48449157 5.16585279 17.48699282 1 22 C-2.0255625 24.08007422 -3.14475109 24 -7 24 C-7 23.34 -7 22.68 -7 22 C-6.071875 21.62875 -5.14375 21.2575 -4.1875 20.875 C-0.37703908 18.6335524 0.54296274 17.12827223 2 13 C2.39697263 9.03027367 2.16941308 6.37464257 0 3 C-0.66 2.34 -1.32 1.68 -2 1 C-1.34 0.67 -0.68 0.34 0 0 Z " fill="#116F9E" transform="translate(22,5)"/>
<path d="M0 0 C3.5795791 2.38638607 5.01200609 3.92776335 6.8125 7.875 C7.13113003 11.89898891 7.04707394 15.84814744 6.8125 19.875 C4.67067487 16.05348628 4.12772536 12.40375627 3.47265625 8.1171875 C2.96690834 5.51462928 2.96690834 5.51462928 -0.1875 3.875 C-0.8475 3.875 -1.5075 3.875 -2.1875 3.875 C-2.1875 2.885 -2.1875 1.895 -2.1875 0.875 C-5.4875 1.535 -8.7875 2.195 -12.1875 2.875 C-12.5175 3.865 -12.8475 4.855 -13.1875 5.875 C-13.8475 5.875 -14.5075 5.875 -15.1875 5.875 C-14.9375 3.5 -14.9375 3.5 -14.1875 0.875 C-10.05330471 -2.46415773 -4.71235131 -1.66318282 0 0 Z " fill="#3E4A4F" transform="translate(22.1875,2.125)"/>
<path d="M0 0 C1.98 0.66 3.96 1.32 6 2 C5.67 2.99 5.34 3.98 5 5 C5.66 5.33 6.32 5.66 7 6 C5.71034824 7.37562854 4.37310707 8.70766393 3 10 C2.34 10 1.68 10 1 10 C0.34 8.68 -0.32 7.36 -1 6 C-1.721875 6.309375 -2.44375 6.61875 -3.1875 6.9375 C-5.80307309 7.92560539 -8.25118982 8.5287754 -11 9 C-11 8.01 -11 7.02 -11 6 C-3.57142857 2.71428571 -3.57142857 2.71428571 0 2 C0 1.34 0 0.68 0 0 Z " fill="#404841" transform="translate(18,6)"/>
<path d="M0 0 C2 3 2 3 2 6 C2.9075 5.175 3.815 4.35 4.75 3.5 C7.53624497 0.96705003 7.87258261 1 12 1 C12 1.66 12 2.32 12 3 C5.5 7 5.5 7 1 7 C0.67 7.99 0.34 8.98 0 10 C0 8.35 0 6.7 0 5 C-0.66 4.67 -1.32 4.34 -2 4 C-2.33 4.66 -2.66 5.32 -3 6 C-2.625 3.5625 -2.625 3.5625 -2 1 C-1.34 0.67 -0.68 0.34 0 0 Z " fill="#568399" transform="translate(6,5)"/>
<path d="M0 0 C0.33 1.32 0.66 2.64 1 4 C2.65 4 4.3 4 6 4 C5.67 6.31 5.34 8.62 5 11 C3.35 10.67 1.7 10.34 0 10 C0 6.7 0 3.4 0 0 Z " fill="#077AB3" transform="translate(5,11)"/>
<path d="M0 0 C0.99 0.33 1.98 0.66 3 1 C2.67 1.33 2.34 1.66 2 2 C1.92755947 4.01964199 1.91622812 6.04167124 1.9375 8.0625 C1.95103516 9.71958984 1.95103516 9.71958984 1.96484375 11.41015625 C1.97644531 12.26480469 1.98804688 13.11945312 2 14 C1.01 13.67 0.02 13.34 -1 13 C-1.02696365 11.20841511 -1.04637917 9.41671527 -1.0625 7.625 C-1.07410156 6.62726562 -1.08570313 5.62953125 -1.09765625 4.6015625 C-1 2 -1 2 0 0 Z " fill="#304047" transform="translate(4,9)"/>
<path d="M0 0 C1.32 0 2.64 0 4 0 C3.01 2.97 2.02 5.94 1 9 C0.34 9 -0.32 9 -1 9 C-1.625 5.625 -1.625 5.625 -2 2 C-1.34 1.34 -0.68 0.68 0 0 Z " fill="#0387C8" transform="translate(13,17)"/>
<path d="M0 0 C0.66 0 1.32 0 2 0 C1.8125 1.8125 1.8125 1.8125 1 4 C-2.34811134 6.53370588 -3.70124217 7 -8 7 C-8 6.34 -8 5.68 -8 5 C-7.05125 4.54625 -6.1025 4.0925 -5.125 3.625 C-1.99686321 2.19761746 -1.99686321 2.19761746 0 0 Z " fill="#03699C" transform="translate(23,22)"/>
<path d="M0 0 C0.33 0 0.66 0 1 0 C1.3125 2.6875 1.3125 2.6875 1 6 C-1.172635 8.57285724 -2.97993838 10.48996919 -6 12 C-6 9 -6 9 -4.125 7.125 C-3.42375 6.42375 -2.7225 5.7225 -2 5 C-0.74563813 2.36777038 -0.74563813 2.36777038 0 0 Z " fill="#343F43" transform="translate(27,18)"/>
<path d="M0 0 C0 0.33 0 0.66 0 1 C-0.63808594 1.18175781 -1.27617187 1.36351562 -1.93359375 1.55078125 C-2.75988281 1.80214844 -3.58617187 2.05351563 -4.4375 2.3125 C-5.26121094 2.55613281 -6.08492187 2.79976563 -6.93359375 3.05078125 C-7.61550781 3.36402344 -8.29742188 3.67726563 -9 4 C-9.33 4.99 -9.66 5.98 -10 7 C-10.66 7 -11.32 7 -12 7 C-11.75 4.625 -11.75 4.625 -11 2 C-7.7044247 -0.66181082 -4.06660119 -0.15640774 0 0 Z " fill="#485155" transform="translate(19,1)"/>
<path d="M0 0 C0.66 0.99 1.32 1.98 2 3 C1.125 5.6875 1.125 5.6875 0 8 C-2.35953094 5.64046906 -2.49141413 4.22104383 -3 1 C-2.01 0.67 -1.02 0.34 0 0 Z " fill="#3A3E40" transform="translate(23,13)"/>
<path d="M0 0 C1.98 0.66 3.96 1.32 6 2 C5.67 2.99 5.34 3.98 5 5 C5.66 5.33 6.32 5.66 7 6 C5.02 6.99 5.02 6.99 3 8 C3 6.35 3 4.7 3 3 C2.01 2.67 1.02 2.34 0 2 C0 1.34 0 0.68 0 0 Z " fill="#496674" transform="translate(18,6)"/>
<path d="M0 0 C1.32 0 2.64 0 4 0 C3.67 2.31 3.34 4.62 3 7 C2.34 7 1.68 7 1 7 C0.67 4.69 0.34 2.38 0 0 Z " fill="#4C4F50" transform="translate(18,9)"/>
<path d="M0 0 C1.32 0 2.64 0 4 0 C3.1875 1.9375 3.1875 1.9375 2 4 C1.01 4.33 0.02 4.66 -1 5 C-0.67 3.35 -0.34 1.7 0 0 Z " fill="#0381C1" transform="translate(9,6)"/>
<path d="M0 0 C0.66 0.33 1.32 0.66 2 1 C2.99 0.67 3.98 0.34 5 0 C5 0.66 5 1.32 5 2 C-0.2734375 5.22265625 -0.2734375 5.22265625 -2 6 C-2.66 5.67 -3.32 5.34 -4 5 C-2.68 3.35 -1.36 1.7 0 0 Z " fill="#788990" transform="translate(13,6)"/>
</svg>
