<?xml version="1.0" encoding="UTF-8"?>
<svg version="1.1" xmlns="http://www.w3.org/2000/svg" width="48" height="48">
<path d="M0 0 C15.84 0 31.68 0 48 0 C48 15.84 48 31.68 48 48 C32.16 48 16.32 48 0 48 C0 32.16 0 16.32 0 0 Z " fill="#333C41" transform="translate(0,0)"/>
<path d="M0 0 C15.84 0 31.68 0 48 0 C48 15.84 48 31.68 48 48 C32.16 48 16.32 48 0 48 C0 32.16 0 16.32 0 0 Z M9 8 C9 8.99 9 9.98 9 11 C8.01 11 7.02 11 6 11 C6.33 11.66 6.66 12.32 7 13 C6.34 13 5.68 13 5 13 C2.82973945 20.20455346 2.55978766 29.18653903 5.9375 36 C9.03584583 40.64317932 12.82411527 43.88004721 18 46 C24.06320491 47.11259379 29.81551727 46.55563625 35.2109375 43.48046875 C39.19867377 40.18057346 41.71051195 35.5789761 44 31 C44.63167461 23.10924503 45.14565042 15.44702131 40 9 C34.96254646 3.79081509 31.154959 1.84655762 23.8125 1.5625 C17.49542839 1.5907643 13.05464383 2.96538184 9 8 Z " fill="#F9F9F9" transform="translate(0,0)"/>
<path d="M0 0 C-0.33 0.66 -0.66 1.32 -1 2 C-1.66 2 -2.32 2 -3 2 C-3 2.99 -3 3.98 -3 5 C-2.2575 4.154375 -1.515 3.30875 -0.75 2.4375 C0.1575 1.633125 1.065 0.82875 2 0 C4.3125 0.1875 4.3125 0.1875 6 1 C6 1.66 6 2.32 6 3 C1.15038185 7.61339033 -4.84170628 10.6417323 -10.77734375 13.60546875 C-13.30815645 14.86523231 -13.30815645 14.86523231 -14 18 C-12.02 17.67 -10.04 17.34 -8 17 C-8.66 17.99 -9.32 18.98 -10 20 C-10.66 20 -11.32 20 -12 20 C-10.63676257 22.0399719 -10.63676257 22.0399719 -9 24 C-8.34 24 -7.68 24 -7 24 C-6.67 23.01 -6.34 22.02 -6 21 C-4.02 20.67 -2.04 20.34 0 20 C0.33 20.66 0.66 21.32 1 22 C1.99 22.66 2.98 23.32 4 24 C3.67 24.99 3.34 25.98 3 27 C1.35 27.33 -0.3 27.66 -2 28 C-1.814375 28.94875 -1.62875 29.8975 -1.4375 30.875 C-1 34 -1 34 -2 36 C-0.53444684 35.26420788 0.92224487 34.51074874 2.375 33.75 C3.18710937 33.33234375 3.99921875 32.9146875 4.8359375 32.484375 C7.23809352 30.83668675 7.9271227 29.66073569 9 27 C9.37125 26.4225 9.7425 25.845 10.125 25.25 C11.46716448 21.7987199 11.11734348 18.69631947 11 15 C11 14.01 11 13.02 11 12 C10.34 11.67 9.68 11.34 9 11 C9.33 10.01 9.66 9.02 10 8 C9.01 8 8.02 8 7 8 C6.67 7.34 6.34 6.68 6 6 C5.34 5.67 4.68 5.34 4 5 C7 3 7 3 9.015625 3.171875 C12.18476009 4.49442744 13.32295443 6.51489988 15.01171875 9.421875 C17.43888848 15.75362212 17.14373216 23.28743227 14.4375 29.5 C12.10781009 33.371879 9.14127905 36.15367976 5 38 C-0.84931507 38.57534247 -0.84931507 38.57534247 -4 37 C-4 36.34 -4 35.68 -4 35 C-5.051875 35.103125 -6.10375 35.20625 -7.1875 35.3125 C-11 35 -11 35 -13.8125 32.8125 C-17.57426051 27.97595077 -18.2479668 24.27435647 -18.125 18.1875 C-18.10695313 17.02605469 -18.08890625 15.86460938 -18.0703125 14.66796875 C-18.04710937 13.78753906 -18.02390625 12.90710937 -18 12 C-16.68 11.34 -15.36 10.68 -14 10 C-14.33 8.35 -14.66 6.7 -15 5 C-14.67 5.66 -14.34 6.32 -14 7 C-13.34 7 -12.68 7 -12 7 C-12.33 6.01 -12.66 5.02 -13 4 C-8.48649253 0.47726246 -5.71658336 -0.45732667 0 0 Z " fill="#046495" transform="translate(25,5)"/>
<path d="M0 0 C-0.99 0.33 -1.98 0.66 -3 1 C-3 1.66 -3 2.32 -3 3 C-1.35 2.67 0.3 2.34 2 2 C2 2.66 2 3.32 2 4 C1.01 4.495 1.01 4.495 0 5 C0.804375 5.28875 1.60875 5.5775 2.4375 5.875 C5 7 5 7 6 9 C6.23805026 13.28490471 6.31774631 16.34040057 4 20 C3.5875 20.825 3.175 21.65 2.75 22.5 C0.57479454 25.60743636 -1.71045298 27.1496298 -5 29 C-5.99 29 -6.98 29 -8 29 C-8 26.36 -8 23.72 -8 21 C-6.35 20.67 -4.7 20.34 -3 20 C-3 19.01 -3 18.02 -3 17 C-3.99 16.34 -4.98 15.68 -6 15 C-6 14.34 -6 13.68 -6 13 C-8.02045442 13.60183749 -10.02111039 14.27306096 -12 15 C-12.33 15.66 -12.66 16.32 -13 17 C-13.66 17 -14.32 17 -15 17 C-15.33 17.99 -15.66 18.98 -16 20 C-16.66 17.69 -17.32 15.38 -18 13 C-17.01 12.34 -16.02 11.68 -15 11 C-16.65 11 -18.3 11 -20 11 C-19.83984375 9.19921875 -19.83984375 9.19921875 -19 7 C-16.56640625 5.33203125 -16.56640625 5.33203125 -13.5625 3.8125 C-12.57378906 3.30332031 -11.58507812 2.79414063 -10.56640625 2.26953125 C-9.71949219 1.85058594 -8.87257813 1.43164062 -8 1 C-5.29120665 -0.35439668 -2.99066732 -0.06501451 0 0 Z " fill="#3C4041" transform="translate(31,12)"/>
<path d="M0 0 C5.83068996 4.40857045 9.09687999 8.75596196 10.5625 15.9375 C7.09117905 14.52820303 5.68156726 13.03144917 3.8125 9.8125 C3.38453125 9.08804687 2.9565625 8.36359375 2.515625 7.6171875 C2.20109375 7.06289062 1.8865625 6.50859375 1.5625 5.9375 C0.2425 6.2675 -1.0775 6.5975 -2.4375 6.9375 C-1.7775 7.2675 -1.1175 7.5975 -0.4375 7.9375 C0.5525 8.5975 1.5425 9.2575 2.5625 9.9375 C1.5725 11.4225 1.5725 11.4225 0.5625 12.9375 C1.8825 13.5975 3.2025 14.2575 4.5625 14.9375 C1.1875 15.0625 1.1875 15.0625 -2.4375 14.9375 C-3.0975 14.2775 -3.7575 13.6175 -4.4375 12.9375 C-3.1175 12.9375 -1.7975 12.9375 -0.4375 12.9375 C-0.4375 12.2775 -0.4375 11.6175 -0.4375 10.9375 C-2.0875 11.2675 -3.7375 11.5975 -5.4375 11.9375 C-6.4375 9.9375 -6.4375 9.9375 -6.4375 6.9375 C-5.1175 6.2775 -3.7975 5.6175 -2.4375 4.9375 C-2.7675 4.2775 -3.0975 3.6175 -3.4375 2.9375 C-6.26411469 3.32737789 -7.22428422 3.67508058 -9.0625 5.9375 C-9.51625 6.5975 -9.97 7.2575 -10.4375 7.9375 C-11.4275 8.4325 -11.4275 8.4325 -12.4375 8.9375 C-12.0625 6.5 -12.0625 6.5 -11.4375 3.9375 C-10.7775 3.6075 -10.1175 3.2775 -9.4375 2.9375 C-14.04375394 2.61613345 -16.77263904 3.02716924 -20.4375 5.9375 C-20.4375 6.9275 -20.4375 7.9175 -20.4375 8.9375 C-21.0975 8.9375 -21.7575 8.9375 -22.4375 8.9375 C-23.0975 7.6175 -23.7575 6.2975 -24.4375 4.9375 C-17.38765936 -2.2188337 -9.46025658 -2.92407931 0 0 Z " fill="#474F53" transform="translate(33.4375,3.0625)"/>
<path d="M0 0 C0.33 1.32 0.66 2.64 1 4 C2.32 4 3.64 4 5 4 C4.67 5.32 4.34 6.64 4 8 C4.99 8.33 5.98 8.66 7 9 C8 10.75 8 10.75 8 13 C5.36027454 16.09224982 2.44164762 18.82028984 -1 21 C-1.99 21 -2.98 21 -4 21 C-4 18.36 -4 15.72 -4 13 C-2.35 12.67 -0.7 12.34 1 12 C1 11.01 1 10.02 1 9 C0.01 8.34 -0.98 7.68 -2 7 C-2 6.34 -2 5.68 -2 5 C-4.64 5.99 -7.28 6.98 -10 8 C-9.5 6.0625 -9.5 6.0625 -8 4 C-5.30341548 3.31209578 -2.7982981 3.18053536 0 3 C0 2.01 0 1.02 0 0 Z " fill="#262829" transform="translate(27,20)"/>
<path d="M0 0 C3 2 3 2 3.50390625 4.46875 C3.65823444 12.45266157 2.15707361 17.81385048 -3 24 C-7.90036783 28.43030857 -12.54098145 29.12186827 -19 29 C-18 27 -18 27 -16.109375 26.32421875 C-15.33078125 26.11410156 -14.5521875 25.90398438 -13.75 25.6875 C-8.23750005 23.93750002 -5.54872141 21.21245915 -2.25 16.5 C-0.33227456 11.13036877 -0.24372114 5.66441538 0 0 Z " fill="#343A3C" transform="translate(41,17)"/>
<path d="M0 0 C0.99 0.33 1.98 0.66 3 1 C3 1.99 3 2.98 3 4 C1.63875 3.8453125 1.63875 3.8453125 0.25 3.6875 C-3.1812345 3.65306216 -3.1812345 3.65306216 -5.25 6.4375 C-6.11625 7.7059375 -6.11625 7.7059375 -7 9 C-7.99 9.495 -7.99 9.495 -9 10 C-8.625 7.5625 -8.625 7.5625 -8 5 C-7.34 4.67 -6.68 4.34 -6 4 C-10.60625394 3.67863345 -13.33513904 4.08966924 -17 7 C-17 7.99 -17 8.98 -17 10 C-17.66 10 -18.32 10 -19 10 C-19.66 8.68 -20.32 7.36 -21 6 C-14.63311768 -0.46305879 -8.81974856 -0.95316024 0 0 Z " fill="#3E4A4F" transform="translate(30,2)"/>
<path d="M0 0 C-1.375 1.5 -1.375 1.5 -3 3 C-3.66 3 -4.32 3 -5 3 C-5.0825 3.7425 -5.165 4.485 -5.25 5.25 C-6.1594602 8.58468741 -7.23733334 9.94773334 -10 12 C-12.25 11.75 -12.25 11.75 -14 11 C-14.33 9.02 -14.66 7.04 -15 5 C-14.67 5.66 -14.34 6.32 -14 7 C-13.34 7 -12.68 7 -12 7 C-12.33 6.01 -12.66 5.02 -13 4 C-8.48649253 0.47726246 -5.71658336 -0.45732667 0 0 Z " fill="#077EBA" transform="translate(25,5)"/>
<path d="M0 0 C3.80686769 1.61866815 5.45202359 5.15133696 6.984375 8.84375 C7.36648876 11.90066005 7.30308652 14.78411945 6.984375 17.84375 C5.0625 17.0390625 5.0625 17.0390625 2.984375 15.84375 C1.734375 12.71875 1.734375 12.71875 0.984375 9.84375 C1.314375 9.51375 1.644375 9.18375 1.984375 8.84375 C1.324375 8.51375 0.664375 8.18375 -0.015625 7.84375 C0.314375 6.85375 0.644375 5.86375 0.984375 4.84375 C-0.005625 4.84375 -0.995625 4.84375 -2.015625 4.84375 C-2.345625 4.18375 -2.675625 3.52375 -3.015625 2.84375 C-3.675625 2.51375 -4.335625 2.18375 -5.015625 1.84375 C-2.015625 -0.15625 -2.015625 -0.15625 0 0 Z " fill="#046DA1" transform="translate(34.015625,8.15625)"/>
<path d="M0 0 C-2.91403262 1.94268841 -5.85808576 3.46395304 -9 5 C-8.34 5 -7.68 5 -7 5 C-7.66 6.65 -8.32 8.3 -9 10 C-10.45817797 10.16802051 -11.9165484 10.33437143 -13.375 10.5 C-14.18710937 10.5928125 -14.99921875 10.685625 -15.8359375 10.78125 C-18 11 -18 11 -20 11 C-19.83984375 9.19921875 -19.83984375 9.19921875 -19 7 C-16.56640625 5.33203125 -16.56640625 5.33203125 -13.5625 3.8125 C-12.57378906 3.30332031 -11.58507812 2.79414063 -10.56640625 2.26953125 C-9.71949219 1.85058594 -8.87257813 1.43164062 -8 1 C-5.29120665 -0.35439668 -2.99066732 -0.06501451 0 0 Z " fill="#364133" transform="translate(31,12)"/>
<path d="M0 0 C2.3125 0.1875 2.3125 0.1875 4 1 C4 1.66 4 2.32 4 3 C-0.8245283 7.58952262 -6.81689852 10.66557973 -12.6796875 13.703125 C-15.09822676 14.91672685 -15.09822676 14.91672685 -17 17 C-16.67 15.35 -16.34 13.7 -16 12 C-14.68 12 -13.36 12 -12 12 C-11.67 11.01 -11.34 10.02 -11 9 C-10 8 -9 7 -8 6 C-7.67 5.01 -7.34 4.02 -7 3 C-6.34 3.33 -5.68 3.66 -5 4 C-5 4.33 -5 4.66 -5 5 C-4.2575 4.154375 -3.515 3.30875 -2.75 2.4375 C-1.8425 1.633125 -0.935 0.82875 0 0 Z " fill="#868F94" transform="translate(27,5)"/>
<path d="M0 0 C0.66 0.33 1.32 0.66 2 1 C2 2.32 2 3.64 2 5 C3.98 5 5.96 5 8 5 C7.01 6.485 7.01 6.485 6 8 C5.34 8 4.68 8 4 8 C4.99 9.485 4.99 9.485 6 11 C6.125 13.6875 6.125 13.6875 6 16 C4.35 16 2.7 16 1 16 C-1.53883587 10.76365102 -1.77641602 5.55130005 0 0 Z " fill="#0A82BE" transform="translate(9,17)"/>
<path d="M0 0 C-0.875 4.75 -0.875 4.75 -2 7 C-2.66 7 -3.32 7 -4 7 C-4 9.31 -4 11.62 -4 14 C-4.99 14 -5.98 14 -7 14 C-7.66 10.7 -8.32 7.4 -9 4 C-8.34 4 -7.68 4 -7 4 C-6.67 3.01 -6.34 2.02 -6 1 C-4 0 -4 0 0 0 Z " fill="#0287C8" transform="translate(25,25)"/>
<path d="M0 0 C0.99 0.33 1.98 0.66 3 1 C2.01 1.33 1.02 1.66 0 2 C-0.02725341 3.7290774 -0.04650987 5.45828176 -0.0625 7.1875 C-0.07410156 8.15042969 -0.08570313 9.11335938 -0.09765625 10.10546875 C-0.00486622 12.85576513 0.37888315 15.32479591 1 18 C4.465 17.505 4.465 17.505 8 17 C8 18.65 8 20.3 8 22 C6.35 22.66 4.7 23.32 3 24 C-0.79974124 18.48424659 -2.15013184 15.12640057 -2.1875 8.4375 C-2.20167969 7.28121094 -2.21585937 6.12492187 -2.23046875 4.93359375 C-2 2 -2 2 0 0 Z " fill="#0A6998" transform="translate(9,15)"/>
<path d="M0 0 C-0.66 2.31 -1.32 4.62 -2 7 C-3.32 7.33 -4.64 7.66 -6 8 C-6 5.36 -6 2.72 -6 0 C-3.50907189 -1.24546405 -2.58919267 -0.7767578 0 0 Z " fill="#303935" transform="translate(29,33)"/>
<path d="M0 0 C1.485 0.99 1.485 0.99 3 2 C3.99 1.67 4.98 1.34 6 1 C6.33 1.99 6.66 2.98 7 4 C2.25 8.875 2.25 8.875 0 10 C0 6.7 0 3.4 0 0 Z " fill="#1A2626" transform="translate(28,29)"/>
<path d="M0 0 C1.65 0 3.3 0 5 0 C6.42944945 2.35438733 7.08661261 3.48032433 6.625 6.25 C6.41875 6.8275 6.2125 7.405 6 8 C3 8 3 8 1 7 C1.33 5.35 1.66 3.7 2 2 C1.34 2 0.68 2 0 2 C0 1.34 0 0.68 0 0 Z " fill="#3C3D3E" transform="translate(30,21)"/>
<path d="M0 0 C1.65 0.99 3.3 1.98 5 3 C4.25 9.75 4.25 9.75 2 12 C2.33 10.35 2.66 8.7 3 7 C2.34 7 1.68 7 1 7 C1 7.66 1 8.32 1 9 C0.01 9 -0.98 9 -2 9 C-1.67 8.443125 -1.34 7.88625 -1 7.3125 C0.1309601 4.69715478 0.15662974 2.8193354 0 0 Z " fill="#2F6A89" transform="translate(36,23)"/>
<path d="M0 0 C2.3125 1.0625 2.3125 1.0625 4 2 C-0.17737474 3.59138085 -3.53160785 4.21278058 -8 4 C-7.625 2.0625 -7.625 2.0625 -7 0 C-4.27761216 -1.36119392 -2.90677521 -0.76129827 0 0 Z " fill="#2F3132" transform="translate(19,19)"/>
<path d="M0 0 C1.32 0.66 2.64 1.32 4 2 C3.67 2.99 3.34 3.98 3 5 C1.35 5.33 -0.3 5.66 -2 6 C-1.67 7.98 -1.34 9.96 -1 12 C-1.99 12.495 -1.99 12.495 -3 13 C-3.27429625 7.60550707 -3.36055646 4.48074195 0 0 Z " fill="#5E696B" transform="translate(25,27)"/>
<path d="M0 0 C1.32 0.33 2.64 0.66 4 1 C4.33 2.32 4.66 3.64 5 5 C3.35 5.33 1.7 5.66 0 6 C-0.33 7.65 -0.66 9.3 -1 11 C-1.98120464 7.94736336 -1.98120464 6.05263664 -1 3 C-0.34 3 0.32 3 1 3 C0.67 2.01 0.34 1.02 0 0 Z " fill="#525759" transform="translate(6,10)"/>
<path d="M0 0 C0.66 0.33 1.32 0.66 2 1 C1.98839844 1.66386719 1.97679687 2.32773437 1.96484375 3.01171875 C1.88106591 9.56306787 1.88106591 9.56306787 3 16 C2.34 16 1.68 16 1 16 C-1.53883587 10.76365102 -1.77641602 5.55130005 0 0 Z " fill="#0178B5" transform="translate(9,17)"/>
<path d="M0 0 C-0.99 1.485 -0.99 1.485 -2 3 C-0.68 3.66 0.64 4.32 2 5 C-1.375 5.125 -1.375 5.125 -5 5 C-5.66 4.34 -6.32 3.68 -7 3 C-5.68 3 -4.36 3 -3 3 C-3 2.34 -3 1.68 -3 1 C-4.65 1.33 -6.3 1.66 -8 2 C-8 1.34 -8 0.68 -8 0 C-4.71303767 -0.79953138 -3.28976808 -1.09658936 0 0 Z " fill="#5A6C75" transform="translate(36,13)"/>
<path d="M0 0 C0.66 0 1.32 0 2 0 C1.67 1.32 1.34 2.64 1 4 C0.34 4 -0.32 4 -1 4 C-1.061875 4.61875 -1.12375 5.2375 -1.1875 5.875 C-2 8 -2 8 -4.5625 9.25 C-5.366875 9.4975 -6.17125 9.745 -7 10 C-7 7 -7 7 -4.625 4.3125 C-2 2 -2 2 0 2 C0 1.34 0 0.68 0 0 Z " fill="#0476B1" transform="translate(37,30)"/>
<path d="M0 0 C2.16874252 0.50603992 3.99967627 0.99983813 6 2 C6 2.66 6 3.32 6 4 C6.99 4.33 7.98 4.66 9 5 C8.67 5.66 8.34 6.32 8 7 C4.66272214 5.82744291 2.22562513 4.81131596 0 2 C0 1.34 0 0.68 0 0 Z " fill="#434546" transform="translate(8,37)"/>
<path d="M0 0 C-0.495 0.433125 -0.99 0.86625 -1.5 1.3125 C-3.33218192 2.99740483 -3.33218192 2.99740483 -3 6 C-3.66 6 -4.32 6 -5 6 C-5.33 6.99 -5.66 7.98 -6 9 C-6.66 6.69 -7.32 4.38 -8 2 C-4.77208445 -0.1519437 -3.71599191 -0.20086443 0 0 Z " fill="#3D4C53" transform="translate(21,23)"/>
<path d="M0 0 C0 0.33 0 0.66 0 1 C-1.5778125 1.37125 -1.5778125 1.37125 -3.1875 1.75 C-6.8133541 2.76700786 -9.19910772 4.45373429 -12 7 C-12.33 6.01 -12.66 5.02 -13 4 C-8.48649253 0.47726246 -5.71658336 -0.45732667 0 0 Z " fill="#026699" transform="translate(25,5)"/>
<path d="M0 0 C0.33 0 0.66 0 1 0 C1 1.65 1 3.3 1 5 C-0.65 5.66 -2.3 6.32 -4 7 C-4.99 5.35 -5.98 3.7 -7 2 C-5.33388095 1.957279 -3.66617115 1.95936168 -2 2 C-1.67 2.33 -1.34 2.66 -1 3 C-0.67 2.01 -0.34 1.02 0 0 Z " fill="#1D617C" transform="translate(16,32)"/>
<path d="M0 0 C1.32 0.33 2.64 0.66 4 1 C3.16855469 1.50660156 3.16855469 1.50660156 2.3203125 2.0234375 C1.59585937 2.46945313 0.87140625 2.91546875 0.125 3.375 C-0.95394531 4.03628906 -0.95394531 4.03628906 -2.0546875 4.7109375 C-4.11793582 5.9853713 -4.11793582 5.9853713 -6 8 C-5.67 6.35 -5.34 4.7 -5 3 C-3.68 3 -2.36 3 -1 3 C-0.67 2.01 -0.34 1.02 0 0 Z " fill="#727F85" transform="translate(16,14)"/>
<path d="M0 0 C0.33 0 0.66 0 1 0 C1 2.97 1 5.94 1 9 C-5.15234375 8.4140625 -5.15234375 8.4140625 -7 8 C-7.33 7.34 -7.66 6.68 -8 6 C-6.35 5.67 -4.7 5.34 -3 5 C-3 5.66 -3 6.32 -3 7 C-2.01 7 -1.02 7 0 7 C0 4.69 0 2.38 0 0 Z " fill="#1677A7" transform="translate(21,32)"/>
<path d="M0 0 C-1.0625 1.5 -1.0625 1.5 -3 3 C-6.6875 3.1875 -6.6875 3.1875 -10 3 C-9 1 -9 1 -5.5625 -0.1875 C-2 -1 -2 -1 0 0 Z " fill="#2C2E2E" transform="translate(32,43)"/>
<path d="M0 0 C2.475 0.495 2.475 0.495 5 1 C5 2.98 5 4.96 5 7 C3.68 6.34 2.36 5.68 1 5 C1.33 4.34 1.66 3.68 2 3 C1.34 2.67 0.68 2.34 0 2 C0 1.34 0 0.68 0 0 Z " fill="#037AB7" transform="translate(34,14)"/>
<path d="M0 0 C1.32 0.33 2.64 0.66 4 1 C-1.14285714 5.42857143 -1.14285714 5.42857143 -5 6 C-3.35 4.02 -1.7 2.04 0 0 Z " fill="#0876AC" transform="translate(27,5)"/>
</svg>
