<?xml version="1.0" encoding="UTF-8"?>
<svg version="1.1" xmlns="http://www.w3.org/2000/svg" width="16" height="16">
<path d="M0 0 C5.28 0 10.56 0 16 0 C16 5.28 16 10.56 16 16 C10.72 16 5.44 16 0 16 C0 10.72 0 5.44 0 0 Z " fill="#4B6470" transform="translate(0,0)"/>
<path d="M0 0 C5.28 0 10.56 0 16 0 C16 5.28 16 10.56 16 16 C10.72 16 5.44 16 0 16 C0 10.72 0 5.44 0 0 Z M2 3 C0.56735094 8.48806826 0.56735094 8.48806826 2.5 13.5 C5.91189291 15.54713574 8.09120921 15.56855139 12 15 C14.62541413 12.79803976 14.9445448 11.38026421 15.4375 8 C15.21611612 4.94241941 15.21611612 4.94241941 13.375 2.625 C9.19011598 -0.2383417 6.09964278 0.26690481 2 3 Z " fill="#ECECEC" transform="translate(0,0)"/>
<path d="M0 0 C0.125 2.875 0.125 2.875 0 6 C-0.66 6.66 -1.32 7.32 -2 8 C-1.67 8.66 -1.34 9.32 -1 10 C-6.75 10.125 -6.75 10.125 -9 9 C-9 8.34 -9 7.68 -9 7 C-7.68 7.33 -6.36 7.66 -5 8 C-4.67 6.68 -4.34 5.36 -4 4 C-4.99 4.33 -5.98 4.66 -7 5 C-7.33 3.68 -7.66 2.36 -8 1 C-4.93251126 -0.86240388 -3.40254489 -1.2151946 0 0 Z " fill="#343E40" transform="translate(12,5)"/>
<path d="M0 0 C1.32 0 2.64 0 4 0 C3.649375 0.78375 3.29875 1.5675 2.9375 2.375 C2.628125 3.24125 2.31875 4.1075 2 5 C2.33 5.66 2.66 6.32 3 7 C3.66 7 4.32 7 5 7 C4.67 8.32 4.34 9.64 4 11 C2.02 10.34 0.04 9.68 -2 9 C-1.125 1.125 -1.125 1.125 0 0 Z " fill="#2B7397" transform="translate(3,2)"/>
<path d="M0 0 C1.98 0 3.96 0 6 0 C6 5.28 6 10.56 6 16 C4.02 16 2.04 16 0 16 C0.66 15.29875 1.32 14.5975 2 13.875 C4.36494446 10.47539234 4.67568691 9.05412149 4 5 C2.12230858 2.15079947 2.12230858 2.15079947 0 0 Z " fill="#FBFBFB" transform="translate(10,0)"/>
<path d="M0 0 C1.5 1.0625 1.5 1.0625 3 3 C3.375 6.5625 3.375 6.5625 3 10 C2.01 10.66 1.02 11.32 0 12 C-0.66 11.34 -1.32 10.68 -2 10 C-1.34 9.34 -0.68 8.68 0 8 C0.24212873 6.01871492 0.24212873 6.01871492 0.125 3.875 C0.063125 1.956875 0.063125 1.956875 0 0 Z " fill="#206386" transform="translate(11,3)"/>
<path d="M0 0 C0.66 0.33 1.32 0.66 2 1 C2 1.66 2 2.32 2 3 C4.31 3.33 6.62 3.66 9 4 C9 4.33 9 4.66 9 5 C5.7 5 2.4 5 -1 5 C-0.67 3.35 -0.34 1.7 0 0 Z " fill="#E2E2E2" transform="translate(1,11)"/>
<path d="M0 0 C0.33 0 0.66 0 1 0 C1 1.65 1 3.3 1 5 C1.66 5.33 2.32 5.66 3 6 C-2.75 6.125 -2.75 6.125 -5 5 C-5 4.34 -5 3.68 -5 3 C-3.68 3.33 -2.36 3.66 -1 4 C-0.67 2.68 -0.34 1.36 0 0 Z " fill="#32515D" transform="translate(8,9)"/>
<path d="M0 0 C1.98 0 3.96 0 6 0 C6 1.65 6 3.3 6 5 C5.34 5 4.68 5 4 5 C2.61767557 3.37373596 1.28062485 1.7074998 0 0 Z " fill="#F5F5F4" transform="translate(10,0)"/>
</svg>
