<?xml version="1.0" encoding="UTF-8"?>
<svg version="1.1" xmlns="http://www.w3.org/2000/svg" width="128" height="128">
<path d="M0 0 C42.24 0 84.48 0 128 0 C128 42.24 128 84.48 128 128 C85.76 128 43.52 128 0 128 C0 85.76 0 43.52 0 0 Z " fill="#222323" transform="translate(0,0)"/>
<path d="M0 0 C42.24 0 84.48 0 128 0 C128 42.24 128 84.48 128 128 C85.76 128 43.52 128 0 128 C0 85.76 0 43.52 0 0 Z M25.0703125 20.15625 C23.08344458 23.57888378 24.02598835 26.29875572 25 30 C24.34 30 23.68 30 23 30 C23 31.32 23 32.64 23 34 C19.7 34 16.4 34 13 34 C13.061875 34.886875 13.12375 35.77375 13.1875 36.6875 C13.20894327 40.27567442 12.43195578 43.3559504 11.5 46.8125 C7.43571335 63.76971513 9.80178718 81.76476402 18.1171875 97.12109375 C26.66797344 110.19563574 39.3004042 120.14380577 54.71484375 123.6484375 C68.37256721 125.74962572 81.37199363 122.22822018 93 115 C102.61271572 107.66826767 109.25707715 99.07210753 114 88 C114.39574219 87.07960938 114.79148437 86.15921875 115.19921875 85.2109375 C120.63086773 70.45972239 119.58927288 52.35165939 113.74609375 37.8984375 C110.17736243 30.21642729 105.46214798 23.16467145 99.2421875 17.359375 C98.83226563 16.91078125 98.42234375 16.4621875 98 16 C98.3125 13.8125 98.3125 13.8125 99 12 C98.21625 12.103125 97.4325 12.20625 96.625 12.3125 C92.21221101 11.93208716 89.3208317 10.37239248 85.46484375 8.2890625 C65.90717504 -1.9391953 39.88469699 4.41149353 25.0703125 20.15625 Z " fill="#FCFCFC" transform="translate(0,0)"/>
<path d="M0 0 C3.47823115 1.15941038 5.45895578 0.70820884 9 0 C5.90506242 2.57788357 2.96700854 3.84356693 -0.8125 5.1875 C-6.17612688 7.3238045 -9.13984824 9.67291475 -12.5 14.328125 C-14.28927018 16.32241572 -15.4650661 16.38739097 -18 17 C-18.495 18.485 -18.495 18.485 -19 20 C-21.24878981 21.07729983 -23.42321609 22.00363356 -25.75 22.875 C-31.05492887 24.90596649 -34.07680259 26.94283976 -38 31 C-40.82421875 32.6171875 -40.82421875 32.6171875 -43.6875 33.875 C-44.64011719 34.30554687 -45.59273437 34.73609375 -46.57421875 35.1796875 C-47.37472656 35.45039062 -48.17523438 35.72109375 -49 36 C-49.66 35.67 -50.32 35.34 -51 35 C-49.515 34.505 -49.515 34.505 -48 34 C-49.32 32.35 -50.64 30.7 -52 29 C-52 33.62 -52 38.24 -52 43 C-53.485 43.495 -53.485 43.495 -55 44 C-51.96609444 45.33421196 -51.96609444 45.33421196 -48.75 44 C-44.70179866 42.92047964 -42.06470141 43.1704691 -38 44 C-39.12451727 46.9719385 -40.22293791 49.33440687 -42 52 C-40.515 51.505 -40.515 51.505 -39 51 C-37.89155081 54.32534757 -38.15545644 56.62182575 -39 60 C-37.515 60.495 -37.515 60.495 -36 61 C-35.855625 60.38125 -35.71125 59.7625 -35.5625 59.125 C-35 57 -35 57 -34 55 C-28.93331494 52.91989201 -23.49520213 51.31309973 -18 52 C-17.34 52.66 -16.68 53.32 -16 54 C-16.27681603 58.76663697 -17.85805841 61.91735366 -20.4375 65.875 C-21.05496094 66.84179688 -21.67242187 67.80859375 -22.30859375 68.8046875 C-23.14583984 69.89136719 -23.14583984 69.89136719 -24 71 C-24.66 71 -25.32 71 -26 71 C-27.1139553 82.09925765 -27.1139553 82.09925765 -23 92 C-21.41754725 93.75149165 -21.41754725 93.75149165 -20 95 C-19.48050781 94.72285156 -18.96101563 94.44570312 -18.42578125 94.16015625 C-12.4975892 91.08100289 -12.4975892 91.08100289 -9.3125 90.5625 C-5.91436225 89.73592595 -4.36988479 87.49141734 -2 85 C-1.278125 84.649375 -0.55625 84.29875 0.1875 83.9375 C2.17892157 83.13297839 2.17892157 83.13297839 3 81 C4 79 4 79 6.0625 78.1875 C7.0215625 77.5996875 7.0215625 77.5996875 8 77 C8.81870185 73.43793339 8.81870185 73.43793339 9 70 C10.65 70 12.3 70 14 70 C16.24317551 63.64719319 16.24317551 63.64719319 17 57 C16.34 57 15.68 57 15 57 C15.33 56.01 15.66 55.02 16 54 C17.65 54.33 19.3 54.66 21 55 C20.3503125 54.31292969 19.700625 53.62585938 19.03125 52.91796875 C18.1959375 52.01691406 17.360625 51.11585937 16.5 50.1875 C15.6646875 49.29417969 14.829375 48.40085938 13.96875 47.48046875 C12 45 12 45 12 42 C14.31 42 16.62 42 19 42 C17.9171875 41.16855469 17.9171875 41.16855469 16.8125 40.3203125 C15.884375 39.59585938 14.95625 38.87140625 14 38.125 C13.071875 37.40570313 12.14375 36.68640625 11.1875 35.9453125 C10.1046875 34.98238281 10.1046875 34.98238281 9 34 C9 33.34 9 32.68 9 32 C12.465 31.505 12.465 31.505 16 31 C10.555 28.525 10.555 28.525 5 26 C5.495 24.515 5.495 24.515 6 23 C6.99 22.505 6.99 22.505 8 22 C2.47293087 22.72724594 -2.69960141 24.33445973 -8 26 C-8.33 24.35 -8.66 22.7 -9 21 C-8.37351563 20.97421875 -7.74703125 20.9484375 -7.1015625 20.921875 C-6.28429687 20.86515625 -5.46703125 20.8084375 -4.625 20.75 C-3.81289062 20.70359375 -3.00078125 20.6571875 -2.1640625 20.609375 C0.14228726 20.22424061 0.14228726 20.22424061 1.1015625 18.203125 C1.39804688 17.47609375 1.69453125 16.7490625 2 16 C2.99 14.68 3.98 13.36 5 12 C1.37 12.99 -2.26 13.98 -6 15 C-3.72781065 9.31952663 -3.72781065 9.31952663 0.375 7.125 C1.14585938 6.69445313 1.91671875 6.26390625 2.7109375 5.8203125 C5.42022635 4.84940694 6.37887444 4.85745809 9 6 C18.7273348 13.24605532 25.06363999 25.11621599 27 37 C28.67258156 56.02408597 26.46199946 71.26835189 14.109375 86.30078125 C7.4539546 93.63406854 -2.84150379 100.45822486 -13 101.1328125 C-19.6798419 101.10671937 -19.6798419 101.10671937 -23 100 C-23 98.68 -23 97.36 -23 96 C-24.32 96 -25.64 96 -27 96 C-27 94.68 -27 93.36 -27 92 C-27.56509277 92.01571045 -28.13018555 92.0314209 -28.71240234 92.04760742 C-31.26650023 92.10987045 -33.82043871 92.14896136 -36.375 92.1875 C-37.26445313 92.21263672 -38.15390625 92.23777344 -39.0703125 92.26367188 C-40.34648438 92.27817383 -40.34648438 92.27817383 -41.6484375 92.29296875 C-42.43395996 92.3086792 -43.21948242 92.32438965 -44.02880859 92.34057617 C-44.67930176 92.22818604 -45.32979492 92.1157959 -46 92 C-46.66 91.01 -47.32 90.02 -48 89 C-50.05003955 87.80767387 -50.05003955 87.80767387 -52 87 C-52 86.01 -52 85.02 -52 84 C-52.57492188 83.82210937 -53.14984375 83.64421875 -53.7421875 83.4609375 C-57.0974801 81.28986582 -58.42773982 78.12056693 -60.125 74.625 C-60.47755859 73.90546143 -60.83011719 73.18592285 -61.19335938 72.44458008 C-64.03857727 66.39042432 -65.57698897 60.70237473 -66 54 C-66.10248047 52.66775391 -66.10248047 52.66775391 -66.20703125 51.30859375 C-66.50908741 43.62294249 -64.82241771 36.43069126 -63 29 C-60.525 28.505 -60.525 28.505 -58 28 C-58 26.68 -58 25.36 -58 24 C-56.68 24 -55.36 24 -54 24 C-54 22.35 -54 20.7 -54 19 C-54.66 19 -55.32 19 -56 19 C-56.66 17.02 -57.32 15.04 -58 13 C-57.34 12.34 -56.68 11.68 -56 11 C-55.608125 11.804375 -55.21625 12.60875 -54.8125 13.4375 C-53.23051809 16.23064738 -53.23051809 16.23064738 -50.3125 16.8125 C-49.1678125 16.9053125 -49.1678125 16.9053125 -48 17 C-48 15.35 -48 13.7 -48 12 C-49.32 11.67 -50.64 11.34 -52 11 C-38.2974397 -5.3079767 -18.90908651 -6.77462236 0 0 Z " fill="#027EBD" transform="translate(83,15)"/>
<path d="M0 0 C2.530472 0.33739627 3.6818563 0.6061078 5.3125 2.625 C7.11665689 4.4202426 7.11665689 4.4202426 10.6875 3.6875 C11.780625 3.460625 12.87375 3.23375 14 3 C26.28246049 19.63618568 31.35677658 36.25807794 29 57 C25.90411587 72.98922191 17.64879526 87.69228203 4.07421875 97.0078125 C-8.05614695 104.37542979 -21.02893081 108.19157339 -35.24609375 105.3515625 C-51.92632103 100.66588041 -63.54397314 91.25110242 -72.2734375 76.41796875 C-80.53771372 60.05769342 -80.81777777 41.6498148 -76.65625 24.13671875 C-75.8293486 20.71843233 -75.8293486 20.71843233 -76 16 C-72.7 16 -69.4 16 -66 16 C-66 14.68 -66 13.36 -66 12 C-64.68 12.33 -63.36 12.66 -62 13 C-62 13.99 -62 14.98 -62 16 C-61.34 16 -60.68 16 -60 16 C-60 17.65 -60 19.3 -60 21 C-61.32 21 -62.64 21 -64 21 C-64 22.32 -64 23.64 -64 25 C-65.32 25.33 -66.64 25.66 -68 26 C-70.06866354 34.43472932 -71.66888244 42.3045283 -71 51 C-70.91298828 52.37865234 -70.91298828 52.37865234 -70.82421875 53.78515625 C-69.79125311 63.0320655 -65.7553976 71.10886497 -61 79 C-59.515 79.99 -59.515 79.99 -58 81 C-57.67 81.99 -57.34 82.98 -57 84 C-55.68352881 84.69937532 -54.34977849 85.36729133 -53 86 C-52.505 86.99 -52.505 86.99 -52 88 C-45.73 88.33 -39.46 88.66 -33 89 C-33 90.32 -33 91.64 -33 93 C-31.68 93 -30.36 93 -29 93 C-29 94.32 -29 95.64 -29 97 C-15.21969974 97.86577803 -5.54930914 93.83944731 5.08984375 85.328125 C13.15462125 78.08375673 19.30789826 66.25311878 20.21728516 55.40893555 C20.93303182 38.00274255 20.03299512 22.32757513 7.94140625 8.67578125 C5.09333493 5.7650001 2.39500648 3.26333765 -1 1 C-0.67 0.67 -0.34 0.34 0 0 Z " fill="#2D3030" transform="translate(89,18)"/>
<path d="M0 0 C9.7273348 7.24605532 16.06363999 19.11621599 18 31 C19.67258156 50.02408597 17.46199946 65.26835189 5.109375 80.30078125 C-1.5460454 87.63406854 -11.84150379 94.45822486 -22 95.1328125 C-28.6798419 95.10671937 -28.6798419 95.10671937 -32 94 C-32 92.68 -32 91.36 -32 90 C-33.32 90 -34.64 90 -36 90 C-36 88.68 -36 87.36 -36 86 C-38.97 86 -41.94 86 -45 86 C-46.10087193 78.98194143 -46.09733092 72.09434233 -46 65 C-46.66 65 -47.32 65 -48 65 C-49.20272819 62.59454362 -49.10071472 61.05003047 -49.0625 58.375 C-49.05347656 57.55773437 -49.04445312 56.74046875 -49.03515625 55.8984375 C-49.02355469 55.27195313 -49.01195312 54.64546875 -49 54 C-47.68 54.33 -46.36 54.66 -45 55 C-44.855625 54.38125 -44.71125 53.7625 -44.5625 53.125 C-44 51 -44 51 -43 49 C-37.93331494 46.91989201 -32.49520213 45.31309973 -27 46 C-26.34 46.66 -25.68 47.32 -25 48 C-25.27681603 52.76663697 -26.85805841 55.91735366 -29.4375 59.875 C-30.05496094 60.84179688 -30.67242187 61.80859375 -31.30859375 62.8046875 C-31.86675781 63.52914062 -32.42492187 64.25359375 -33 65 C-33.66 65 -34.32 65 -35 65 C-36.1139553 76.09925765 -36.1139553 76.09925765 -32 86 C-30.41754725 87.75149165 -30.41754725 87.75149165 -29 89 C-28.48050781 88.72285156 -27.96101563 88.44570312 -27.42578125 88.16015625 C-21.4975892 85.08100289 -21.4975892 85.08100289 -18.3125 84.5625 C-14.91436225 83.73592595 -13.36988479 81.49141734 -11 79 C-10.278125 78.649375 -9.55625 78.29875 -8.8125 77.9375 C-6.82107843 77.13297839 -6.82107843 77.13297839 -6 75 C-5 73 -5 73 -2.9375 72.1875 C-1.9784375 71.5996875 -1.9784375 71.5996875 -1 71 C-0.18129815 67.43793339 -0.18129815 67.43793339 0 64 C1.65 64 3.3 64 5 64 C7.24317551 57.64719319 7.24317551 57.64719319 8 51 C7.34 51 6.68 51 6 51 C6.33 50.01 6.66 49.02 7 48 C8.65 48.33 10.3 48.66 12 49 C11.3503125 48.31292969 10.700625 47.62585938 10.03125 46.91796875 C9.1959375 46.01691406 8.360625 45.11585937 7.5 44.1875 C6.6646875 43.29417969 5.829375 42.40085938 4.96875 41.48046875 C3 39 3 39 3 36 C5.31 36 7.62 36 10 36 C9.278125 35.44570313 8.55625 34.89140625 7.8125 34.3203125 C6.884375 33.59585938 5.95625 32.87140625 5 32.125 C4.071875 31.40570313 3.14375 30.68640625 2.1875 29.9453125 C1.465625 29.30335937 0.74375 28.66140625 0 28 C0 27.34 0 26.68 0 26 C2.31 25.67 4.62 25.34 7 25 C3.37 23.35 -0.26 21.7 -4 20 C-3.505 18.515 -3.505 18.515 -3 17 C-2.34 16.67 -1.68 16.34 -1 16 C-6.52706913 16.72724594 -11.69960141 18.33445973 -17 20 C-17.495 17.525 -17.495 17.525 -18 15 C-17.37351562 14.97421875 -16.74703125 14.9484375 -16.1015625 14.921875 C-15.28429687 14.86515625 -14.46703125 14.8084375 -13.625 14.75 C-12.81289062 14.70359375 -12.00078125 14.6571875 -11.1640625 14.609375 C-8.85771274 14.22424061 -8.85771274 14.22424061 -7.8984375 12.203125 C-7.60195312 11.47609375 -7.30546875 10.7490625 -7 10 C-6.01 8.68 -5.02 7.36 -4 6 C-9.445 7.485 -9.445 7.485 -15 9 C-12.72781065 3.31952663 -12.72781065 3.31952663 -8.625 1.125 C-7.85414062 0.69445312 -7.08328125 0.26390625 -6.2890625 -0.1796875 C-3.57977365 -1.15059306 -2.62112556 -1.14254191 0 0 Z " fill="#01679A" transform="translate(92,21)"/>
<path d="M0 0 C1.32 0.33 2.64 0.66 4 1 C4 1.99 4 2.98 4 4 C4.66 4 5.32 4 6 4 C6 5.65 6 7.3 6 9 C4.68 9 3.36 9 2 9 C2 10.32 2 11.64 2 13 C0.68 13.33 -0.64 13.66 -2 14 C-4.06866354 22.43472932 -5.66888244 30.3045283 -5 39 C-4.91298828 40.37865234 -4.91298828 40.37865234 -4.82421875 41.78515625 C-3.79125311 51.0320655 0.2446024 59.10886497 5 67 C6.485 67.99 6.485 67.99 8 69 C8.33 69.99 8.66 70.98 9 72 C10.31647119 72.69937532 11.65022151 73.36729133 13 74 C13.495 74.99 13.495 74.99 14 76 C20.27 76.33 26.54 76.66 33 77 C33 78.32 33 79.64 33 81 C34.32 81 35.64 81 37 81 C37 82.32 37 83.64 37 85 C38.32 85.33 39.64 85.66 41 86 C35.39 86 29.78 86 24 86 C24 86.99 24 87.98 24 89 C24.91523437 88.97679688 25.83046875 88.95359375 26.7734375 88.9296875 C27.96195313 88.91164063 29.15046875 88.89359375 30.375 88.875 C32.15003906 88.84019531 32.15003906 88.84019531 33.9609375 88.8046875 C37 89 37 89 39 91 C38.01 91.495 38.01 91.495 37 92 C39.97 92.33 42.94 92.66 46 93 C46 93.33 46 93.66 46 94 C31.07590683 94.96804929 18.16346664 90.40906876 6.53125 81.00390625 C-5.45842955 69.81490735 -12.58487107 54.40400658 -13.203125 38.00390625 C-13.35622091 29.04678813 -12.7288001 20.85870043 -10.65625 12.13671875 C-9.8293486 8.71843233 -9.8293486 8.71843233 -10 4 C-6.7 4 -3.4 4 0 4 C0 2.68 0 1.36 0 0 Z " fill="#3C3C3C" transform="translate(23,30)"/>
<path d="M0 0 C0.75023437 0.00676758 1.50046875 0.01353516 2.2734375 0.02050781 C12.10176815 0.20393586 20.04574882 2.67947659 28.68359375 7.3671875 C31.36598744 8.58694801 33.71860289 8.38210896 36.625 8.25 C36.25375 9.0853125 36.25375 9.0853125 35.875 9.9375 C35.34146324 12.49050936 35.34146324 12.49050936 37.5625 15 C38.243125 15.7425 38.92375 16.485 39.625 17.25 C36.625 19.25 36.625 19.25 34.6875 19.0625 C32.3237936 18.13134293 30.63279693 16.78931098 28.625 15.25 C27.965 15.25 27.305 15.25 26.625 15.25 C26.233125 15.6625 25.84125 16.075 25.4375 16.5 C23.6674947 18.20897063 22.15484218 19.10427614 20 20.25 C16.37835148 21.89839466 16.37835148 21.89839466 15.625 25.25 C19.585 24.26 23.545 23.27 27.625 22.25 C23.91377199 27.87670053 23.91377199 27.87670053 20.359375 28.90625 C14.33638743 29.60569372 14.33638743 29.60569372 11.625 28.25 C11.13 29.735 11.13 29.735 10.625 31.25 C9.51125 30.7240625 9.51125 30.7240625 8.375 30.1875 C5.4927274 29.20490707 4.41323655 29.2173198 1.625 30.25 C2.375 28.3125 2.375 28.3125 3.625 26.25 C4.57826172 26.03730469 4.57826172 26.03730469 5.55078125 25.8203125 C8.14657244 25.10659214 8.58276606 24.26026877 10.0625 22.0625 C14.27977018 16.76078891 20.49937892 14.73114919 26.625 12.25 C26.06683594 12.45367187 25.50867188 12.65734375 24.93359375 12.8671875 C21.94004654 13.36357942 20.43867166 12.60433711 17.6875 11.375 C7.08740197 6.6893307 -3.45458524 7.30253961 -14.3203125 10.9765625 C-20.51467489 13.55886703 -25.91203661 17.20491095 -30.375 22.25 C-29.385 22.58 -28.395 22.91 -27.375 23.25 C-27.375 24.9 -27.375 26.55 -27.375 28.25 C-29.6875 28.5625 -29.6875 28.5625 -32.375 28.25 C-34 25.875 -34 25.875 -35.375 23.25 C-36.365 22.59 -37.355 21.93 -38.375 21.25 C-37.5037955 15.47186426 -32.81487188 12.57062841 -28.375 9.25 C-19.16837346 3.55963926 -10.88714435 -0.14196366 0 0 Z " fill="#4D4D4D" transform="translate(62.375,3.75)"/>
<path d="M0 0 C0.66 0 1.32 0 2 0 C2 0.66 2 1.32 2 2 C4.97 2.33 7.94 2.66 11 3 C11.33 4.32 11.66 5.64 12 7 C12.66 6.67 13.32 6.34 14 6 C14.66 7.65 15.32 9.3 16 11 C14.52660156 11.70382813 14.52660156 11.70382813 13.0234375 12.421875 C9.89436926 14.58150622 9.89436926 14.58150622 9.50488281 17.01757812 C9.40920924 19.45159604 9.47684346 21.81871322 9.625 24.25 C9.65207031 25.09046875 9.67914063 25.9309375 9.70703125 26.796875 C9.77755891 28.86568634 9.88517633 30.93317393 10 33 C8.37384766 33.44472656 8.37384766 33.44472656 6.71484375 33.8984375 C3.20400547 34.93950626 0.21814663 36.27318961 -3 38 C-6.39511905 34.95201282 -9.57728751 31.74208741 -10.29785156 27.06787109 C-10.38537199 24.91758482 -10.32949019 22.83464502 -10.1875 20.6875 C-10.14633057 19.99398437 -10.10516113 19.30046875 -10.06274414 18.5859375 C-9.58772304 13.97560318 -8.44450646 11.98267319 -5 9 C-3.49292215 6.66962357 -3.49292215 6.66962357 -2.25 4.25 C-1.82203125 3.45078125 -1.3940625 2.6515625 -0.953125 1.828125 C-0.63859375 1.22484375 -0.3240625 0.6215625 0 0 Z " fill="#313E3A" transform="translate(66,73)"/>
<path d="M0 0 C0.66 0.66 1.32 1.32 2 2 C1.72318397 6.76663697 0.14194159 9.91735366 -2.4375 13.875 C-3.05496094 14.84179688 -3.67242187 15.80859375 -4.30859375 16.8046875 C-4.86675781 17.52914062 -5.42492187 18.25359375 -6 19 C-6.66 19 -7.32 19 -8 19 C-8.8967518 31.89240299 -8.8967518 31.89240299 -3 43 C-4 44 -4 44 -6.5625 44.0625 C-7.366875 44.041875 -8.17125 44.02125 -9 44 C-9 42.68 -9 41.36 -9 40 C-11.97 40 -14.94 40 -18 40 C-19.10087193 32.98194143 -19.09733092 26.09434233 -19 19 C-19.66 19 -20.32 19 -21 19 C-22.20272819 16.59454362 -22.10071472 15.05003047 -22.0625 12.375 C-22.05347656 11.55773437 -22.04445312 10.74046875 -22.03515625 9.8984375 C-22.02355469 9.27195312 -22.01195312 8.64546875 -22 8 C-20.68 8.33 -19.36 8.66 -18 9 C-17.855625 8.38125 -17.71125 7.7625 -17.5625 7.125 C-17 5 -17 5 -16 3 C-10.93331494 0.91989201 -5.49520213 -0.68690027 0 0 Z " fill="#0187C8" transform="translate(65,67)"/>
<path d="M0 0 C0.99 0.33 1.98 0.66 3 1 C2.34 1 1.68 1 1 1 C-1.60685005 23.91914829 -1.60685005 23.91914829 5.44921875 45.35546875 C6.21685547 46.16951172 6.21685547 46.16951172 7 47 C7.99 47 8.98 47 10 47 C10.33 45.68 10.66 44.36 11 43 C11.33 43 11.66 43 12 43 C12.33 45.31 12.66 47.62 13 50 C13.66 49.34 14.32 48.68 15 48 C15 49.65 15 51.3 15 53 C15.66 53.33 16.32 53.66 17 54 C16.01 54 15.02 54 14 54 C14.33 54.66 14.66 55.32 15 56 C17.97 55.505 17.97 55.505 21 55 C20.01 54.34 19.02 53.68 18 53 C18.33 51.02 18.66 49.04 19 47 C19.66 48.32 20.32 49.64 21 51 C21.14625636 47.85548824 21.20503789 45.49977985 20 42.5625 C18.7222191 39.28818645 18.86343857 36.48231642 19 33 C18.34 33 17.68 33 17 33 C12.42857143 25.71428571 12.42857143 25.71428571 13 21 C13.99 21 14.98 21 16 21 C16 20.34 16 19.68 16 19 C14.68 19 13.36 19 12 19 C11.34 18.34 10.68 17.68 10 17 C15.16569441 15.20782031 18.51053913 14.87970186 24 16 C22.87548273 18.9719385 21.77706209 21.33440687 20 24 C20.99 23.67 21.98 23.34 23 23 C23.68795629 25.14030846 24.12110779 26.54786424 23.53125 28.75 C22.85167855 31.62818495 22.90539214 34.29607684 22.9375 37.25 C22.94652344 38.32765625 22.95554687 39.4053125 22.96484375 40.515625 C22.97644531 41.33546875 22.98804687 42.1553125 23 43 C23.66 43 24.32 43 25 43 C26.10844919 46.32534757 25.84454356 48.62182575 25 52 C25.66 52.33 26.32 52.66 27 53 C26.34 53 25.68 53 25 53 C25.2475 54.60875 25.2475 54.60875 25.5 56.25 C26 60 26 60 26 64 C24.37581255 64.08090971 22.75048255 64.13914995 21.125 64.1875 C20.22007813 64.22230469 19.31515625 64.25710937 18.3828125 64.29296875 C17.20332031 64.14794922 17.20332031 64.14794922 16 64 C15.34 63.01 14.68 62.02 14 61 C11.94996045 59.80767387 11.94996045 59.80767387 10 59 C10 58.01 10 57.02 10 56 C9.42507812 55.82210937 8.85015625 55.64421875 8.2578125 55.4609375 C4.9025199 53.28986582 3.57226018 50.12056693 1.875 46.625 C1.52244141 45.90546143 1.16988281 45.18592285 0.80664062 44.44458008 C-2.03857727 38.39042432 -3.57698897 32.70237473 -4 26 C-4.06832031 25.11183594 -4.13664062 24.22367188 -4.20703125 23.30859375 C-4.50731543 15.66802966 -2.99888285 8.35340323 -1 1 C-0.67 0.67 -0.34 0.34 0 0 Z " fill="#045B87" transform="translate(21,43)"/>
<path d="M0 0 C2.45092139 0.32248966 4.7385563 0.93079432 7.125 1.5625 C9.1660264 2.11361481 9.1660264 2.11361481 12 2 C12.66 3.32 13.32 4.64 14 6 C13.01 6.66 12.02 7.32 11 8 C10.67 7.34 10.34 6.68 10 6 C10.46800711 10.05606165 10.87953208 13.46588679 13 17 C13.66 17 14.32 17 15 17 C15.19916016 18.04800781 15.19916016 18.04800781 15.40234375 19.1171875 C15.57894531 20.02726562 15.75554688 20.93734375 15.9375 21.875 C16.11152344 22.77992187 16.28554688 23.68484375 16.46484375 24.6171875 C16.89963701 26.99956317 16.89963701 26.99956317 18 29 C18.039992 30.99960012 18.04346799 33.00047242 18 35 C17.01 35.495 17.01 35.495 16 36 C15.67 35.34 15.34 34.68 15 34 C15 34.99 15 35.98 15 37 C15.99 37.66 16.98 38.32 18 39 C15 41 15 41 12.3125 40.625 C11.549375 40.41875 10.78625 40.2125 10 40 C10.33 39.01 10.66 38.02 11 37 C10.505 35.515 10.505 35.515 10 34 C9.34 34.99 8.68 35.98 8 37 C7.67 34.03 7.34 31.06 7 28 C6.67 28.99 6.34 29.98 6 31 C5.01 31 4.02 31 3 31 C2.67 31.66 2.34 32.32 2 33 C-1.50582558 25.48751661 -2.18965015 17.67557558 -2.25 9.5 C-2.25918457 8.79319092 -2.26836914 8.08638184 -2.27783203 7.3581543 C-2.24685823 2.24685823 -2.24685823 2.24685823 0 0 Z " fill="#0281C0" transform="translate(25,59)"/>
<path d="M0 0 C0.33 0 0.66 0 1 0 C1 2.31 1 4.62 1 7 C-0.134375 7.4125 -1.26875 7.825 -2.4375 8.25 C-6.09543384 9.56685398 -6.09543384 9.56685398 -6.9375 12.1875 C-6.958125 12.785625 -6.97875 13.38375 -7 14 C-4.525 14.495 -4.525 14.495 -2 15 C-5.42716331 17.28477554 -8.04925971 17.67487662 -12.0390625 18.33984375 C-12.68617187 18.55769531 -13.33328125 18.77554688 -14 19 C-14.33 19.99 -14.66 20.98 -15 22 C-15.66 21.67 -16.32 21.34 -17 21 C-17.33 21.66 -17.66 22.32 -18 23 C-22.84759237 24.74513325 -26.90060774 25 -32 25 C-35.32186171 25.91114536 -35.32186171 25.91114536 -38 27 C-38.99 26.01 -39.98 25.02 -41 24 C-40.01 23.67 -39.02 23.34 -38 23 C-38 18.71 -38 14.42 -38 10 C-37.34 9.67 -36.68 9.34 -36 9 C-33 12.75 -33 12.75 -33 15 C-32.30132812 14.71125 -31.60265625 14.4225 -30.8828125 14.125 C-29.97273438 13.75375 -29.06265625 13.3825 -28.125 13 C-27.22007813 12.62875 -26.31515625 12.2575 -25.3828125 11.875 C-23 11 -23 11 -21 11 C-20.814375 10.4225 -20.62875 9.845 -20.4375 9.25 C-18.22358763 5.78474586 -15.72793394 4.73541752 -12 3 C-9.5625 3.25 -9.5625 3.25 -8 4 C-9.32 4.99 -10.64 5.98 -12 7 C-9.36 7 -6.72 7 -4 7 C-4 6.34 -4 5.68 -4 5 C-3.34 5 -2.68 5 -2 5 C-1.34 3.35 -0.68 1.7 0 0 Z " fill="#3D3D3D" transform="translate(68,34)"/>
<path d="M0 0 C0.70125 0.391875 1.4025 0.78375 2.125 1.1875 C2.455 0.5275 2.785 -0.1325 3.125 -0.8125 C6.425 -0.8125 9.725 -0.8125 13.125 -0.8125 C12.795 0.1775 12.465 1.1675 12.125 2.1875 C7.67 2.6825 7.67 2.6825 3.125 3.1875 C4.115 4.5075 5.105 5.8275 6.125 7.1875 C7.28 6.713125 8.435 6.23875 9.625 5.75 C13.81070332 4.16541232 17.67738986 3.58460805 22.125 3.1875 C20.475 4.8375 18.825 6.4875 17.125 8.1875 C17.785 8.1875 18.445 8.1875 19.125 8.1875 C19.785 9.5075 20.445 10.8275 21.125 12.1875 C20.135 12.5175 19.145 12.8475 18.125 13.1875 C18.125 12.1975 18.125 11.2075 18.125 10.1875 C17.63 10.373125 17.135 10.55875 16.625 10.75 C12.97418311 11.38889296 9.78535276 10.73655291 6.125 10.1875 C5.795 12.4975 5.465 14.8075 5.125 17.1875 C3.3925 17.5278125 3.3925 17.5278125 1.625 17.875 C-4.10306226 19.30955911 -8.99712005 22.01620131 -12.875 26.5 C-13.205 27.056875 -13.535 27.61375 -13.875 28.1875 C-14.555625 27.795625 -15.23625 27.40375 -15.9375 27 C-20.17149749 25.82889431 -22.02437286 27.22443518 -25.875 29.1875 C-25.875 27.8675 -25.875 26.5475 -25.875 25.1875 C-25.235625 25.06375 -24.59625 24.94 -23.9375 24.8125 C-23.256875 24.60625 -22.57625 24.4 -21.875 24.1875 C-21.545 23.5275 -21.215 22.8675 -20.875 22.1875 C-19.885 22.1875 -18.895 22.1875 -17.875 22.1875 C-17.25625 21.506875 -17.25625 21.506875 -16.625 20.8125 C-14.06161067 18.43220991 -11.21676927 18.00717925 -7.875 17.1875 C-8.865 16.5275 -9.855 15.8675 -10.875 15.1875 C-10.545 13.5375 -10.215 11.8875 -9.875 10.1875 C-7.235 9.5275 -4.595 8.8675 -1.875 8.1875 C-2.205 6.2075 -2.535 4.2275 -2.875 2.1875 C-3.535 3.5075 -4.195 4.8275 -4.875 6.1875 C-5.535 6.1875 -6.195 6.1875 -6.875 6.1875 C-6.875 6.8475 -6.875 7.5075 -6.875 8.1875 C-12.32 8.6825 -12.32 8.6825 -17.875 9.1875 C-15.875 7.1875 -15.875 7.1875 -13.9375 6.25 C-11.84755403 5.31510215 -11.84755403 5.31510215 -10.5 3.75 C-7.28929641 0.66278501 -4.41409149 -1.24746064 0 0 Z " fill="#404240" transform="translate(70.875,32.8125)"/>
<path d="M0 0 C4.86606132 4.00585638 10.23721662 8.83025816 12 15 C11.92345511 18.38328395 11.54744176 21.66258397 11 25 C5.45949887 24.43174347 0.96284034 22.37113483 -4 20 C-3.67 19.01 -3.34 18.02 -3 17 C-2.34 16.67 -1.68 16.34 -1 16 C-6.52706913 16.72724594 -11.69960141 18.33445973 -17 20 C-17.33 18.35 -17.66 16.7 -18 15 C-17.37351562 14.97421875 -16.74703125 14.9484375 -16.1015625 14.921875 C-15.28429687 14.86515625 -14.46703125 14.8084375 -13.625 14.75 C-12.81289062 14.70359375 -12.00078125 14.6571875 -11.1640625 14.609375 C-8.85771274 14.22424061 -8.85771274 14.22424061 -7.8984375 12.203125 C-7.45371094 11.11257812 -7.45371094 11.11257812 -7 10 C-6.01 8.68 -5.02 7.36 -4 6 C-9.445 7.485 -9.445 7.485 -15 9 C-12.72781065 3.31952663 -12.72781065 3.31952663 -8.625 1.125 C-7.46871094 0.47917969 -7.46871094 0.47917969 -6.2890625 -0.1796875 C-3.56477991 -1.15596625 -2.62818063 -1.17779523 0 0 Z " fill="#026FA6" transform="translate(92,21)"/>
<path d="M0 0 C0.66 0.66 1.32 1.32 2 2 C1.35933594 2.21914063 0.71867187 2.43828125 0.05859375 2.6640625 C-5.31787368 4.6351668 -9.18239339 6.70510015 -13.34375 10.62109375 C-15.07753371 12.06455047 -16.59296423 12.81292363 -18.6875 13.625 C-21.99840764 14.99933902 -23.68614635 16.31592977 -26 19 C-26.66 18.67 -27.32 18.34 -28 18 C-27.125 10.375 -27.125 10.375 -26 7 C-24.22265625 5.61328125 -24.22265625 5.61328125 -22.0625 4.3125 C-20.99708984 3.65701172 -20.99708984 3.65701172 -19.91015625 2.98828125 C-18 2 -18 2 -16 2 C-16.495 0.515 -16.495 0.515 -17 -1 C-22.75813575 -1.10469338 -28.29014022 -0.74016701 -34 0 C-34 0.99 -34 1.98 -34 3 C-35.4562545 3.67119549 -36.91507867 4.33681807 -38.375 5 C-39.59316406 5.556875 -39.59316406 5.556875 -40.8359375 6.125 C-43 7 -43 7 -45 7 C-45.226875 7.639375 -45.45375 8.27875 -45.6875 8.9375 C-47 11 -47 11 -49.625 11.75 C-50.40875 11.8325 -51.1925 11.915 -52 12 C-39.26548704 -4.75593811 -18.89290255 -7.72635119 0 0 Z " fill="#025B87" transform="translate(83,15)"/>
<path d="M0 0 C7.63083259 -0.84787029 13.55301627 2.58475746 20.12890625 6.15625 C22.77338015 7.34874763 25.14040361 7.12998165 28 7 C27.7525 7.556875 27.505 8.11375 27.25 8.6875 C26.71646324 11.24050936 26.71646324 11.24050936 28.9375 13.75 C29.9584375 14.86375 29.9584375 14.86375 31 16 C28 18 28 18 26.0625 17.8125 C23.6987936 16.88134293 22.00779693 15.53931098 20 14 C19.34 14 18.68 14 18 14 C17.608125 14.4125 17.21625 14.825 16.8125 15.25 C15.0424947 16.95897063 13.52984218 17.85427614 11.375 19 C7.75335148 20.64839466 7.75335148 20.64839466 7 24 C10.96 23.01 14.92 22.02 19 21 C15.28877199 26.62670053 15.28877199 26.62670053 11.734375 27.65625 C5.71138743 28.35569372 5.71138743 28.35569372 3 27 C2.67 27.99 2.34 28.98 2 30 C0.88625 29.4740625 0.88625 29.4740625 -0.25 28.9375 C-3.1322726 27.95490707 -4.21176345 27.9673198 -7 29 C-6.25 27.0625 -6.25 27.0625 -5 25 C-4.36449219 24.85820312 -3.72898437 24.71640625 -3.07421875 24.5703125 C-0.47842756 23.85659214 -0.04223394 23.01026877 1.4375 20.8125 C5.65477018 15.51078891 11.87437892 13.48114919 18 11 C17.0821875 10.70222656 16.164375 10.40445312 15.21875 10.09765625 C12 9 12 9 8.5 7.4375 C5.25903972 6.10639132 2.46132499 5.4221128 -1 5 C-0.67 3.35 -0.34 1.7 0 0 Z " fill="#494D4E" transform="translate(71,5)"/>
<path d="M0 0 C0.66 0.33 1.32 0.66 2 1 C1.67 2.32 1.34 3.64 1 5 C5.05431692 6.15837626 7.21812119 5.83691257 11 4 C12.30108405 6.6021681 12.41906875 9.1643175 12.71875 12.02734375 C12.96937145 14.20671134 12.96937145 14.20671134 14 17 C12.7463639 20.8862719 10.15914449 22.57554027 7 25 C4.54945006 27.39078043 2.16506608 29.82550157 -0.1875 32.3125 C-2 34 -2 34 -4 34 C-4.13517903 31.24835568 -4.23415251 28.50335479 -4.3125 25.75 C-4.35439453 24.97269531 -4.39628906 24.19539063 -4.43945312 23.39453125 C-4.56328662 17.59912378 -4.56328662 17.59912378 -1.60546875 14.453125 C1 13 1 13 3 13 C2.54625 12.54625 2.0925 12.0925 1.625 11.625 C-0.1875 9.8125 -0.1875 9.8125 -2 8 C-1.42307692 1.42307692 -1.42307692 1.42307692 0 0 Z " fill="#161C19" transform="translate(79,71)"/>
<path d="M0 0 C-1.07378906 0.4125 -2.14757812 0.825 -3.25390625 1.25 C-13.81826546 5.39464478 -13.81826546 5.39464478 -21.640625 13.3984375 C-23.32211571 15.37950415 -24.5399997 15.40024786 -27 16 C-27.495 17.485 -27.495 17.485 -28 19 C-30.24878981 20.07729983 -32.42321609 21.00363356 -34.75 21.875 C-40.05492887 23.90596649 -43.07680259 25.94283976 -47 30 C-49.82421875 31.6171875 -49.82421875 31.6171875 -52.6875 32.875 C-53.64011719 33.30554687 -54.59273437 33.73609375 -55.57421875 34.1796875 C-56.37472656 34.45039062 -57.17523438 34.72109375 -58 35 C-58.66 34.67 -59.32 34.34 -60 34 C-58.515 33.505 -58.515 33.505 -57 33 C-56.67 32.01 -56.34 31.02 -56 30 C-54.35 29.67 -52.7 29.34 -51 29 C-51.08636719 28.23945312 -51.17273437 27.47890625 -51.26171875 26.6953125 C-51 24 -51 24 -49.20703125 22.3671875 C-48.41683594 21.87476562 -47.62664063 21.38234375 -46.8125 20.875 C-42.86494508 18.07112922 -41.19394292 15.88118458 -39.4375 11.375 C-37.46950674 6.37932481 -35.42436637 4.20825044 -30.76953125 1.609375 C-30.18558594 1.40828125 -29.60164063 1.2071875 -29 1 C-28.34 1.33 -27.68 1.66 -27 2 C-32.75 6 -32.75 6 -35 6 C-35.33 9.63 -35.66 13.26 -36 17 C-32.95397456 16.2414954 -32.95397456 16.2414954 -31.1875 14.125 C-28.65341421 11.66331666 -26.15820122 10.57910061 -23 9 C-21.78049322 8.03478499 -20.57303794 7.0542368 -19.375 6.0625 C-14.25749135 2.10311226 -6.42277994 -2.14092665 0 0 Z " fill="#839195" transform="translate(92,16)"/>
<path d="M0 0 C1.43931117 0.45261358 2.87638999 0.91232979 4.3125 1.375 C5.11300781 1.63023438 5.91351563 1.88546875 6.73828125 2.1484375 C9 3 9 3 12 5 C8.7 5 5.4 5 2 5 C5.49359465 8.59634744 9.11098131 11.83451967 13 15 C10.39417629 15.93065133 9.35801776 16.14917407 6.75 15.0625 C6.1725 14.711875 5.595 14.36125 5 14 C5 13.34 5 12.68 5 12 C4.34 11.67 3.68 11.34 3 11 C2.67 11.99 2.34 12.98 2 14 C-4.25457038 15.14879864 -9.5534304 15.6310464 -15 12 C-16.01868662 11.01904252 -17.02351983 10.02297922 -18 9 C-16.68 8.67 -15.36 8.34 -14 8 C-13.67 5.69 -13.34 3.38 -13 1 C-9.04 1 -5.08 1 -1 1 C-1 1.99 -1 2.98 -1 4 C-0.34 3.34 0.32 2.68 1 2 C0.67 1.34 0.34 0.68 0 0 Z " fill="#303637" transform="translate(90,42)"/>
<path d="M0 0 C0.99 0.33 1.98 0.66 3 1 C3.28247668 5.89626238 3.21645835 8.2887019 0 12 C-0.2475 12.78375 -0.495 13.5675 -0.75 14.375 C-3.95556257 21.1066814 -11.0895837 24.34019644 -17.44921875 27.60546875 C-20.00239936 28.90060699 -20.00239936 28.90060699 -22.00390625 30.6328125 C-24.48762332 32.33398858 -26.26713539 32.49125891 -29.25 32.6875 C-30.14203125 32.75324219 -31.0340625 32.81898437 -31.953125 32.88671875 C-32.96632813 32.94279297 -32.96632813 32.94279297 -34 33 C-33 30 -33 30 -30.75 28.375 C-28 27 -28 27 -25.5 26.625 C-21.9818678 25.74546695 -20.46315684 23.58947258 -18 21 C-17.278125 20.649375 -16.55625 20.29875 -15.8125 19.9375 C-13.82107843 19.13297839 -13.82107843 19.13297839 -13 17 C-12 15 -12 15 -9.9375 14.1875 C-9.298125 13.795625 -8.65875 13.40375 -8 13 C-7.18129815 9.43793339 -7.18129815 9.43793339 -7 6 C-5.35 6 -3.7 6 -2 6 C-1.34 4.02 -0.68 2.04 0 0 Z " fill="#0277B3" transform="translate(99,79)"/>
<path d="M0 0 C3.26008643 3.16952847 6.22237877 6.39937989 9 10 C6.03 9.505 6.03 9.505 3 9 C2.67 9.66 2.34 10.32 2 11 C2.66 11 3.32 11 4 11 C5.22807018 16.40350877 5.22807018 16.40350877 4.1875 19.125 C3.795625 19.74375 3.40375 20.3625 3 21 C2.62875 21.7425 2.2575 22.485 1.875 23.25 C1.58625 23.8275 1.2975 24.405 1 25 C-0.98 24.67 -2.96 24.34 -5 24 C-5.00257812 23.38511719 -5.00515625 22.77023438 -5.0078125 22.13671875 C-5.12782055 19.62855042 -5.31774275 17.42008233 -6 15 C-8.90251302 12.83752779 -8.90251302 12.83752779 -12 12 C-11.67 9.69 -11.34 7.38 -11 5 C-9.35 4.67 -7.7 4.34 -6 4 C-6 5.32 -6 6.64 -6 8 C-5.34 8 -4.68 8 -4 8 C-4 7.01 -4 6.02 -4 5 C-1.525 5.99 -1.525 5.99 1 7 C0.67 4.69 0.34 2.38 0 0 Z " fill="#262828" transform="translate(96,61)"/>
<path d="M0 0 C1.32 0.33 2.64 0.66 4 1 C4 1.99 4 2.98 4 4 C4.66 4 5.32 4 6 4 C6 5.65 6 7.3 6 9 C4.68 9 3.36 9 2 9 C2 10.32 2 11.64 2 13 C0.02 13 -1.96 13 -4 13 C-5.32 18.61 -6.64 24.22 -8 30 C-9.65 30 -11.3 30 -13 30 C-12.48552247 23.75857519 -11.64475565 17.68247865 -10.40234375 11.54296875 C-9.86977149 8.60600542 -9.86977149 8.60600542 -10 4 C-6.7 4 -3.4 4 0 4 C0 2.68 0 1.36 0 0 Z " fill="#424344" transform="translate(23,30)"/>
<path d="M0 0 C0.66 0 1.32 0 2 0 C2 0.66 2 1.32 2 2 C4.97 2.33 7.94 2.66 11 3 C8.09907498 4.93395001 7.10325263 5.30131941 3.8125 5.625 C2.554375 5.74875 1.29625 5.8725 0 6 C0 6.66 0 7.32 0 8 C2.76264289 8.59732819 5.16032769 9 8 9 C7.67 9.99 7.34 10.98 7 12 C4.78515625 12.7734375 4.78515625 12.7734375 2.0625 13.375 C-1.91623161 14.35678043 -1.91623161 14.35678043 -4.625 17.25 C-5.07299193 20.53527415 -5.12985098 23.68880003 -5 27 C-1.7 27 1.6 27 5 27 C1 30 1 30 -1.6875 31.5 C-4.2968972 32.85099122 -4.2968972 32.85099122 -5 36 C-8.70280518 32.38750714 -9.91236993 30.36237376 -10.25 25.11328125 C-10.20911643 23.67890828 -10.14622446 22.24501091 -10.0625 20.8125 C-10.02906494 20.11125 -9.99562988 19.41 -9.96118164 18.6875 C-9.55748757 14.00218515 -8.51305626 12.01770881 -5 9 C-3.49292215 6.66962357 -3.49292215 6.66962357 -2.25 4.25 C-1.82203125 3.45078125 -1.3940625 2.6515625 -0.953125 1.828125 C-0.63859375 1.22484375 -0.3240625 0.6215625 0 0 Z " fill="#56707A" transform="translate(66,73)"/>
<path d="M0 0 C8.92872782 7.61567961 14.96789438 21.38881179 16 33 C16.06352243 35.67282837 16.04611347 38.32541861 16 41 C14.35 41 12.7 41 11 41 C10.34 36.05 9.68 31.1 9 26 C9.66 25.67 10.32 25.34 11 25 C10.01 25 9.02 25 8 25 C7.66226563 24.25234375 7.32453125 23.5046875 6.9765625 22.734375 C6.53054687 21.74953125 6.08453125 20.7646875 5.625 19.75 C5.18414062 18.77546875 4.74328125 17.8009375 4.2890625 16.796875 C2.23168557 12.3329905 0.16704047 8.80044856 -3 5 C-1.125 1.125 -1.125 1.125 0 0 Z " fill="#494948" transform="translate(102,21)"/>
<path d="M0 0 C0.66 0.33 1.32 0.66 2 1 C0.87548273 3.9719385 -0.22293791 6.33440687 -2 9 C-1.01 8.67 -0.02 8.34 1 8 C1.69937889 10.17584542 2.1056114 11.58465432 1.53515625 13.828125 C0.92937689 16.2866164 0.86728711 18.47017229 0.875 21 C0.87242188 21.845625 0.86984375 22.69125 0.8671875 23.5625 C0.91842814 25.94638356 0.91842814 25.94638356 1.50390625 27.984375 C2.11264419 30.45767247 2.09596771 32.70645373 2.0625 35.25 C2.05347656 36.14203125 2.04445313 37.0340625 2.03515625 37.953125 C2.02355469 38.62859375 2.01195312 39.3040625 2 40 C-1 40 -1 40 -4 38 C-3.505 35.03 -3.505 35.03 -3 32 C-2.34 33.32 -1.68 34.64 -1 36 C-0.85374364 32.85548824 -0.79496211 30.49977985 -2 27.5625 C-3.2777809 24.28818645 -3.13656143 21.48231642 -3 18 C-3.66 18 -4.32 18 -5 18 C-9.57142857 10.71428571 -9.57142857 10.71428571 -9 6 C-8.01 6 -7.02 6 -6 6 C-6 5.34 -6 4.68 -6 4 C-7.32 4 -8.64 4 -10 4 C-10.66 3.34 -11.32 2.68 -12 2 C-7.8780636 0.00148538 -4.55547083 -0.25785684 0 0 Z " fill="#3F616F" transform="translate(43,58)"/>
<path d="M0 0 C0.66 0.33 1.32 0.66 2 1 C1.67515625 2.32451172 1.67515625 2.32451172 1.34375 3.67578125 C-0.4175402 11.26726818 -1.59879267 18.21569531 -1 26 C-0.91298828 27.37865234 -0.91298828 27.37865234 -0.82421875 28.78515625 C0.22510121 38.1784663 4.55986807 45.82235043 9 54 C9.33 54.66 9.66 55.32 10 56 C9.01 56 8.02 56 7 56 C4 51.77777778 4 51.77777778 4 49 C3.34 49 2.68 49 2 49 C1.32532438 47.25307205 0.66055844 45.50231475 0 43.75 C-0.37125 42.77546875 -0.7425 41.8009375 -1.125 40.796875 C-2 38 -2 38 -2 34 C-4.97 34.495 -4.97 34.495 -8 35 C-9.32594359 29.03325384 -9.0884587 23.07416385 -9 17 C-7.35 17 -5.7 17 -4 17 C-3.96261719 16.443125 -3.92523437 15.88625 -3.88671875 15.3125 C-3.40439364 9.71374576 -2.16758121 5.18334636 0 0 Z " fill="#1D2122" transform="translate(19,43)"/>
<path d="M0 0 C0 0.66 0 1.32 0 2 C0.66 2.33 1.32 2.66 2 3 C1.01 3.66 0.02 4.32 -1 5 C-1.72965366 7.56282742 -1.72965366 7.56282742 -2 10 C-2.60328125 10.03738281 -3.2065625 10.07476562 -3.828125 10.11328125 C-8.77641326 10.38213517 -8.77641326 10.38213517 -13.0625 12.5625 C-16.18284654 14.87759582 -19.1948543 14.19025728 -23 14 C-23.33 15.32 -23.66 16.64 -24 18 C-24.99 18 -25.98 18 -27 18 C-27 17.34 -27 16.68 -27 16 C-28.65 16 -30.3 16 -32 16 C-29.63638847 10.93511815 -27.09795557 9.33648013 -21.9765625 7.46484375 C-20 7 -20 7 -17.5 7.8125 C-17.005 8.204375 -16.51 8.59625 -16 9 C-15.525625 8.278125 -15.05125 7.55625 -14.5625 6.8125 C-10.84706748 2.73458626 -5.62589888 -1.87529963 0 0 Z " fill="#40403F" transform="translate(73,51)"/>
<path d="M0 0 C0.515625 0.268125 1.03125 0.53625 1.5625 0.8125 C4.66401415 2.32349407 7.82262806 3.65572726 11 5 C10.67 6.0725 10.34 7.145 10 8.25 C8.8282249 11.99731601 8.8282249 11.99731601 9 16 C9.66 16.33 10.32 16.66 11 17 C11.33 15.68 11.66 14.36 12 13 C12 14.98 12 16.96 12 19 C10.25 20.125 10.25 20.125 8 21 C5.8125 20.375 5.8125 20.375 4 19 C3.25 16.875 3.25 16.875 3 15 C2.67 16.32 2.34 17.64 2 19 C-1.3 18.67 -4.6 18.34 -8 18 C-8 17.34 -8 16.68 -8 16 C-5.73767049 14.09677041 -3.35803163 12.39659094 -0.96875 10.65625 C-0.3190625 10.1096875 0.330625 9.563125 1 9 C1 8.34 1 7.68 1 7 C-0.32 6.67 -1.64 6.34 -3 6 C-1.125 1.125 -1.125 1.125 0 0 Z " fill="#2F2F2F" transform="translate(76,57)"/>
<path d="M0 0 C0.77923828 0.00902344 1.55847656 0.01804688 2.36132812 0.02734375 C4.26185447 0.05066309 6.16222008 0.08652414 8.0625 0.125 C7.4025 1.775 6.7425 3.425 6.0625 5.125 C5.22847656 5.16238281 4.39445312 5.19976563 3.53515625 5.23828125 C-6.78231435 5.84102008 -14.22374337 7.69365006 -22.89453125 13.33203125 C-24.9375 14.125 -24.9375 14.125 -27.19921875 13.26171875 C-27.77285156 12.88660156 -28.34648438 12.51148438 -28.9375 12.125 C-28.9375 11.135 -28.9375 10.145 -28.9375 9.125 C-26.92157347 7.9912308 -24.89950253 6.86838359 -22.875 5.75 C-21.74964844 5.12351562 -20.62429687 4.49703125 -19.46484375 3.8515625 C-12.85885373 0.61806572 -7.21242882 -0.16068822 0 0 Z " fill="#4C4C4C" transform="translate(62.9375,3.875)"/>
<path d="M0 0 C6.19551346 7.48335708 6.55887147 17.47080455 6.5 26.8125 C6.49500488 27.86058838 6.49000977 28.90867676 6.48486328 29.98852539 C6.12952469 45.84765413 -0.25455281 57.99974387 -11.54296875 68.98046875 C-15.33626366 72.098328 -19.48520787 74.12433479 -24 76 C-22.45695186 71.69148896 -19.16590494 69.50338098 -15.625 66.875 C-15.0475 66.43285156 -14.47 65.99070312 -13.875 65.53515625 C-11.54350377 63.77322645 -9.30957283 62.14702121 -6.6640625 60.890625 C-4.62225393 60.0273679 -4.62225393 60.0273679 -3.75 56.875 C-3.5025 55.92625 -3.255 54.9775 -3 54 C-2.34 54 -1.68 54 -1 54 C-0.87882812 53.28714844 -0.75765625 52.57429688 -0.6328125 51.83984375 C-0.46523437 50.88207031 -0.29765625 49.92429688 -0.125 48.9375 C0.03742188 47.99777344 0.19984375 47.05804688 0.3671875 46.08984375 C1 43 1 43 2.05859375 39.77734375 C3.25387934 34.9813223 3.2542625 30.54434215 3.1875 25.625 C3.1865332 24.28308594 3.1865332 24.28308594 3.18554688 22.9140625 C3.14821637 17.20664245 2.720654 11.66145782 2 6 C1.34 6 0.68 6 0 6 C0 4.02 0 2.04 0 0 Z " fill="#015F8D" transform="translate(104,37)"/>
<path d="M0 0 C0.33 0 0.66 0 1 0 C1.06058594 0.83144531 1.12117188 1.66289063 1.18359375 2.51953125 C1.26738281 3.60621094 1.35117188 4.69289063 1.4375 5.8125 C1.55931641 7.43091797 1.55931641 7.43091797 1.68359375 9.08203125 C1.90212461 12.05989905 1.90212461 12.05989905 3 15 C3.32909171 21.07851754 3.06466852 27.01123956 2 33 C-1.11824121 31.63746417 -3.04737351 30.14891747 -5.25 27.5625 C-5.77078125 26.96566406 -6.2915625 26.36882813 -6.828125 25.75390625 C-8 24 -8 24 -8 21 C-5.69 21 -3.38 21 -1 21 C-1.721875 20.44570313 -2.44375 19.89140625 -3.1875 19.3203125 C-4.115625 18.59585938 -5.04375 17.87140625 -6 17.125 C-6.928125 16.40570313 -7.85625 15.68640625 -8.8125 14.9453125 C-9.8953125 13.98238281 -9.8953125 13.98238281 -11 13 C-11 12.34 -11 11.68 -11 11 C-7.7 10.67 -4.4 10.34 -1 10 C-0.67 6.7 -0.34 3.4 0 0 Z " fill="#027BB8" transform="translate(103,36)"/>
<path d="M0 0 C0.99 0 1.98 0 3 0 C2.71125 0.680625 2.4225 1.36125 2.125 2.0625 C0.87402645 5.32893093 -0.07447955 8.62846123 -1 12 C1.46800047 10.84826645 3.04783565 9.95216435 5 8 C5.33 11.3 5.66 14.6 6 18 C4.02 18.99 4.02 18.99 2 20 C1.01 20.66 0.02 21.32 -1 22 C-1.25338601 24.6092726 -1.32792984 26.96011578 -1.25 29.5625 C-1.23904297 30.28179687 -1.22808594 31.00109375 -1.21679688 31.7421875 C-1.11042119 36.87597076 -0.72656406 41.91405161 0 47 C-6.46428582 34.26816748 -7.10205308 18.77479552 -3 5 C-2.34 4.67 -1.68 4.34 -1 4 C-0.34786708 1.97536745 -0.34786708 1.97536745 0 0 Z " fill="#006DA5" transform="translate(25,39)"/>
<path d="M0 0 C0.99 1.32 1.98 2.64 3 4 C3.99 3.67 4.98 3.34 6 3 C4.68 2.34 3.36 1.68 2 1 C2 0.67 2 0.34 2 0 C4.31 0 6.62 0 9 0 C9 1.98 9 3.96 9 6 C7.845 6.226875 6.69 6.45375 5.5 6.6875 C-0.22806226 8.12205911 -5.12212005 10.82870131 -9 15.3125 C-9.495 16.1478125 -9.495 16.1478125 -10 17 C-10.680625 16.608125 -11.36125 16.21625 -12.0625 15.8125 C-16.29649749 14.64139431 -18.14937286 16.03693518 -22 18 C-22 16.68 -22 15.36 -22 14 C-21.360625 13.87625 -20.72125 13.7525 -20.0625 13.625 C-19.381875 13.41875 -18.70125 13.2125 -18 13 C-17.67 12.34 -17.34 11.68 -17 11 C-16.01 11 -15.02 11 -14 11 C-13.5875 10.54625 -13.175 10.0925 -12.75 9.625 C-10.18661067 7.24470991 -7.34176927 6.81967925 -4 6 C-4.99 5.34 -5.98 4.68 -7 4 C-4.69 2.68 -2.38 1.36 0 0 Z " fill="#1C1C1C" transform="translate(67,44)"/>
<path d="M0 0 C1.37562854 1.28965176 2.70766393 2.62689293 4 4 C4 4.66 4 5.32 4 6 C3.67 6.33 3.34 6.66 3 7 C4.66666667 7.33333333 6.33333333 7.66666667 8 8 C8.825 8.226875 9.65 8.45375 10.5 8.6875 C13.55355795 9.06919474 15.26650682 8.32769669 18 7 C18 9.25 18 9.25 17 12 C12.45005455 15.37361809 7.57338481 16.45358972 2 17 C1.01 17.33 0.02 17.66 -1 18 C-1.99 17.01 -2.98 16.02 -4 15 C-3.01 14.67 -2.02 14.34 -1 14 C-1.01160156 13.07316406 -1.02320313 12.14632812 -1.03515625 11.19140625 C-1.04417969 9.99386719 -1.05320312 8.79632813 -1.0625 7.5625 C-1.07410156 6.36753906 -1.08570313 5.17257813 -1.09765625 3.94140625 C-1 1 -1 1 0 0 Z " fill="#3A3B3B" transform="translate(31,43)"/>
<path d="M0 0 C0.66 0 1.32 0 2 0 C3.67345854 6.57382517 4.35395238 12.60032015 4.3125 19.375 C4.30903564 20.29458496 4.30557129 21.21416992 4.30200195 22.16162109 C4.05442952 37.62600729 4.05442952 37.62600729 -0.60546875 42.7734375 C-1.06566406 43.17820313 -1.52585937 43.58296875 -2 44 C-2.2165625 42.329375 -2.2165625 42.329375 -2.4375 40.625 C-2.78372035 37.17857953 -2.78372035 37.17857953 -4 35 C-4.039992 33.00039988 -4.04346799 30.99952758 -4 29 C-4.66 29 -5.32 29 -6 29 C-5.505 27.515 -5.505 27.515 -5 26 C-3.35 26.33 -1.7 26.66 0 27 C1.37178883 17.91189901 1.37178883 9.08810099 0 0 Z " fill="#026BA0" transform="translate(104,43)"/>
<path d="M0 0 C0.66 0.33 1.32 0.66 2 1 C1.67 2.32 1.34 3.64 1 5 C5.05431692 6.15837626 7.21812119 5.83691257 11 4 C12.30108405 6.6021681 12.41906875 9.1643175 12.71875 12.02734375 C12.96937145 14.20671134 12.96937145 14.20671134 14 17 C12.78524611 20.88721245 10.50339864 22.15610598 7 24 C6.67 22.35 6.34 20.7 6 19 C7.32 18.34 8.64 17.68 10 17 C8.68 16.67 7.36 16.34 6 16 C5.67 14.68 5.34 13.36 5 12 C4.34 12 3.68 12 3 12 C1.31243867 11.03567924 -0.35666496 10.03789581 -2 9 C-1.125 1.125 -1.125 1.125 0 0 Z " fill="#1D2424" transform="translate(79,71)"/>
<path d="M0 0 C2.33944736 0.28730055 4.6739143 0.61936779 7 1 C7 1.66 7 2.32 7 3 C7.66 3.33 8.32 3.66 9 4 C8.31292969 4.39832031 7.62585938 4.79664063 6.91796875 5.20703125 C6.01691406 5.73683594 5.11585937 6.26664063 4.1875 6.8125 C3.29417969 7.33457031 2.40085937 7.85664063 1.48046875 8.39453125 C-0.96753161 9.85047734 -0.96753161 9.85047734 -2.5625 11.59375 C-4.31304087 13.30623564 -5.8832647 13.89423867 -8.1875 14.6875 C-9.26064453 15.06455078 -9.26064453 15.06455078 -10.35546875 15.44921875 C-10.89816406 15.63097656 -11.44085938 15.81273437 -12 16 C-12.33984375 13.30078125 -12.33984375 13.30078125 -12 10 C-9.62890625 7.48046875 -9.62890625 7.48046875 -6.5625 5.1875 C-5.55316406 4.41792969 -4.54382813 3.64835937 -3.50390625 2.85546875 C-2.67761719 2.24316406 -1.85132812 1.63085938 -1 1 C-0.67 0.67 -0.34 0.34 0 0 Z " fill="#057FBA" transform="translate(72,14)"/>
<path d="M0 0 C0.33 1.32 0.66 2.64 1 4 C-6.26153846 6.21538462 -6.26153846 6.21538462 -10 5.125 C-10.66 4.75375 -11.32 4.3825 -12 4 C-12.4125 4.474375 -12.825 4.94875 -13.25 5.4375 C-15 7 -15 7 -16.7890625 7.31640625 C-19.96134183 8.29723466 -21.72479075 10.23592202 -24.125 12.5 C-28.83728814 16.91864407 -28.83728814 16.91864407 -31 18 C-31.49990235 14.50068353 -31.19455238 13.26358709 -29.0625 10.375 C-25.26719687 7.4317037 -21.59358279 6.23096009 -17 5 C-17 4.01 -17 3.02 -17 2 C-11.19233704 0.4943096 -6.0018137 -0.21824777 0 0 Z " fill="#006EA6" transform="translate(66,13)"/>
<path d="M0 0 C0.33 1.32 0.66 2.64 1 4 C6.28 4 11.56 4 17 4 C17 4.33 17 4.66 17 5 C19.97 5.495 19.97 5.495 23 6 C23.33 7.65 23.66 9.3 24 11 C18.72 11 13.44 11 8 11 C8.33 10.01 8.66 9.02 9 8 C8.39671875 8.01160156 7.7934375 8.02320312 7.171875 8.03515625 C5.97304688 8.04869141 5.97304688 8.04869141 4.75 8.0625 C3.56664062 8.07990234 3.56664062 8.07990234 2.359375 8.09765625 C0.09308998 8.00385306 -1.8288895 7.63241063 -4 7 C-4 6.01 -4 5.02 -4 4 C-2.68 4 -1.36 4 0 4 C0 2.68 0 1.36 0 0 Z " fill="#323333" transform="translate(51,112)"/>
<path d="M0 0 C8.65788447 -0.96198716 15.82320796 3.58251609 23 8 C20.56496521 10.43503479 19.40119246 10.71615948 16 11 C13.31640625 10.0390625 13.31640625 10.0390625 10.5625 8.625 C6.67181942 6.7269788 3.37248262 5.35452562 -1 5 C-0.67 3.35 -0.34 1.7 0 0 Z " fill="#4C4C4B" transform="translate(71,5)"/>
<path d="M0 0 C0.495 1.485 0.495 1.485 1 3 C0.67 3.66 0.34 4.32 0 5 C1.30324219 4.92265625 1.30324219 4.92265625 2.6328125 4.84375 C6.33378426 5.01548883 8.5646062 5.88517375 11.875 7.5 C13.32519531 8.19609375 13.32519531 8.19609375 14.8046875 8.90625 C15.52914062 9.2671875 16.25359375 9.628125 17 10 C16.34 10.66 15.68 11.32 15 12 C14.33613281 11.72285156 13.67226562 11.44570313 12.98828125 11.16015625 C12.10527344 10.79792969 11.22226563 10.43570312 10.3125 10.0625 C9.44238281 9.70285156 8.57226562 9.34320313 7.67578125 8.97265625 C-3.28207222 4.98943652 -14.42150794 6.6526745 -25 11 C-28.46392028 12.82311594 -31.75964723 14.80563018 -35 17 C-35.33 16.34 -35.66 15.68 -36 15 C-33.77342754 13.5010656 -31.54282544 12.00897712 -29.3046875 10.52734375 C-27.6742965 9.44686429 -26.05269805 8.35306208 -24.4375 7.25 C-16.90400186 3.38666762 -9.26947595 3.77309365 -1 4 C-0.67 2.68 -0.34 1.36 0 0 Z " fill="#1E2324" transform="translate(70,5)"/>
<path d="M0 0 C0.66 0 1.32 0 2 0 C2 0.66 2 1.32 2 2 C4.97 2.33 7.94 2.66 11 3 C8.09907498 4.93395001 7.10325263 5.30131941 3.8125 5.625 C2.554375 5.74875 1.29625 5.8725 0 6 C0 6.66 0 7.32 0 8 C2.76264289 8.59732819 5.16032769 9 8 9 C7.67 9.99 7.34 10.98 7 12 C2.60470084 13.98834962 -1.22037853 14.19118486 -6 14 C-5.41892368 10.2397015 -4.34800504 7.46964968 -2.4375 4.1875 C-1.98246094 3.39730469 -1.52742188 2.60710937 -1.05859375 1.79296875 C-0.53458984 0.90544922 -0.53458984 0.90544922 0 0 Z " fill="#71797B" transform="translate(66,73)"/>
<path d="M0 0 C1.65 0 3.3 0 5 0 C5.33452052 7.43378943 5.13902852 13.19877155 2 20 C0.68 19.67 -0.64 19.34 -2 19 C-1.45118943 12.64780958 -0.83488387 6.32126362 0 0 Z " fill="#434342" transform="translate(113,63)"/>
<path d="M0 0 C0.66 0.33 1.32 0.66 2 1 C0.87548273 3.9719385 -0.22293791 6.33440687 -2 9 C-1.01 8.67 -0.02 8.34 1 8 C1.93065133 10.60582371 2.14917407 11.64198224 1.0625 14.25 C0.711875 14.8275 0.36125 15.405 0 16 C0 15.01 0 14.02 0 13 C-1.65 13.33 -3.3 13.66 -5 14 C-5.33 13.34 -5.66 12.68 -6 12 C-5.34 12 -4.68 12 -4 12 C-4.33 11.34 -4.66 10.68 -5 10 C-6.32 10.33 -7.64 10.66 -9 11 C-9 9.35 -9 7.7 -9 6 C-8.01 6 -7.02 6 -6 6 C-6 5.34 -6 4.68 -6 4 C-7.32 4 -8.64 4 -10 4 C-10.66 3.34 -11.32 2.68 -12 2 C-7.8780636 0.00148538 -4.55547083 -0.25785684 0 0 Z " fill="#4D6977" transform="translate(43,58)"/>
<path d="M0 0 C1.43931117 0.45261358 2.87638999 0.91232979 4.3125 1.375 C5.11300781 1.63023438 5.91351563 1.88546875 6.73828125 2.1484375 C9 3 9 3 12 5 C8.04 5 4.08 5 0 5 C0 5.66 0 6.32 0 7 C-1.98 7 -3.96 7 -6 7 C-6.33 6.01 -6.66 5.02 -7 4 C-8.175625 4.5259375 -8.175625 4.5259375 -9.375 5.0625 C-10.674375 5.5265625 -10.674375 5.5265625 -12 6 C-12.66 5.67 -13.32 5.34 -14 5 C-13.67 3.68 -13.34 2.36 -13 1 C-9.04 1 -5.08 1 -1 1 C-1 1.99 -1 2.98 -1 4 C-0.34 3.34 0.32 2.68 1 2 C0.67 1.34 0.34 0.68 0 0 Z " fill="#494949" transform="translate(90,42)"/>
<path d="M0 0 C0.66 0 1.32 0 2 0 C3.10844919 3.32534757 2.84454356 5.62182575 2 9 C2.66 9.33 3.32 9.66 4 10 C3.34 10 2.68 10 2 10 C2.165 11.0725 2.33 12.145 2.5 13.25 C3 17 3 17 3 21 C-0.3 21 -3.6 21 -7 21 C-7.33 19.35 -7.66 17.7 -8 16 C-5.36 14.68 -2.72 13.36 0 12 C0 8.04 0 4.08 0 0 Z " fill="#117CA9" transform="translate(44,86)"/>
<path d="M0 0 C-4.18284372 9.12258296 -12.12347566 13.13274232 -21 17 C-21.99 17.33 -22.98 17.66 -24 18 C-24 19.65 -24 21.3 -24 23 C-24.66 23 -25.32 23 -26 23 C-26 21.68 -26 20.36 -26 19 C-29.3 19 -32.6 19 -36 19 C-32.52605913 17.26302956 -29.58620903 16.26946465 -25.875 15.25 C-16.75437832 12.47904879 -9.76544262 8.4173906 -3.375 1.3203125 C-2 0 -2 0 0 0 Z " fill="#171E20" transform="translate(100,99)"/>
<path d="M0 0 C0.33 0.33 0.66 0.66 1 1 C1.7734375 1.7115625 1.7734375 1.7115625 2.5625 2.4375 C4 4 4 4 4 6 C0.6875 7.625 0.6875 7.625 -3 9 C-3.99 8.34 -4.98 7.68 -6 7 C-6 6.01 -6 5.02 -6 4 C-7.32 4 -8.64 4 -10 4 C-10.66 3.67 -11.32 3.34 -12 3 C-12 2.34 -12 1.68 -12 1 C-3.8156682 -1.31889401 -3.8156682 -1.31889401 0 0 Z " fill="#2C2C2C" transform="translate(78,78)"/>
<path d="M0 0 C0 3 0 3 -1.8984375 5.04296875 C-2.71570313 5.75066406 -3.53296875 6.45835938 -4.375 7.1875 C-5.18710938 7.90292969 -5.99921875 8.61835938 -6.8359375 9.35546875 C-9 11 -9 11 -11 11 C-11 13.64 -11 16.28 -11 19 C-12.65 19.66 -14.3 20.32 -16 21 C-15.85831863 19.56208484 -15.71148957 18.1246763 -15.5625 16.6875 C-15.48128906 15.88699219 -15.40007813 15.08648437 -15.31640625 14.26171875 C-14.90375071 11.31199585 -14.63050588 9.49193316 -12.22265625 7.61328125 C-11.50980469 7.18402344 -10.79695313 6.75476563 -10.0625 6.3125 C-8.99708984 5.65701172 -8.99708984 5.65701172 -7.91015625 4.98828125 C-6 4 -6 4 -4 4 C-3.67 3.01 -3.34 2.02 -3 1 C-2.01 0.67 -1.02 0.34 0 0 Z " fill="#474B4C" transform="translate(71,13)"/>
<path d="M0 0 C0 1.32 0 2.64 0 4 C1.37285156 3.96519531 1.37285156 3.96519531 2.7734375 3.9296875 C3.96195313 3.91164063 5.15046875 3.89359375 6.375 3.875 C7.55835938 3.85179688 8.74171875 3.82859375 9.9609375 3.8046875 C13 4 13 4 15 6 C14.01 6.495 14.01 6.495 13 7 C15.97 7.33 18.94 7.66 22 8 C22 8.33 22 8.66 22 9 C11.8906232 9.65574336 1.06254098 8.76400674 -7 2 C-4 0 -4 0 0 0 Z " fill="#4D4D4D" transform="translate(47,115)"/>
<path d="M0 0 C0.33 0.66 0.66 1.32 1 2 C2.98 2 4.96 2 7 2 C7 3.98 7 5.96 7 8 C6.01 8.495 6.01 8.495 5 9 C4.67 8.34 4.34 7.68 4 7 C4 7.99 4 8.98 4 10 C4.99 10.66 5.98 11.32 7 12 C4 14 4 14 1.3125 13.625 C0.549375 13.41875 -0.21375 13.2125 -1 13 C-0.67 12.01 -0.34 11.02 0 10 C-0.33 9.01 -0.66 8.02 -1 7 C-1.66 7.99 -2.32 8.98 -3 10 C-3 7.03 -3 4.06 -3 1 C-2.01 0.67 -1.02 0.34 0 0 Z " fill="#1977A4" transform="translate(36,86)"/>
<path d="M0 0 C1.65 0 3.3 0 5 0 C5.33 4.95 5.66 9.9 6 15 C4.35 15.66 2.7 16.32 1 17 C-0.22517308 11.33357449 -0.09228867 5.76291482 0 0 Z " fill="#414140" transform="translate(10,61)"/>
<path d="M0 0 C0.33 0.66 0.66 1.32 1 2 C0.34 2 -0.32 2 -1 2 C-0.34 2.66 0.32 3.32 1 4 C1.99 3.34 2.98 2.68 4 2 C4 3.65 4 5.3 4 7 C3.34 7 2.68 7 2 7 C1.855625 8.27875 1.71125 9.5575 1.5625 10.875 C1.29357254 13.25692894 1.07773654 14.84452691 0 17 C-1.65 17 -3.3 17 -5 17 C-5 14.03 -5 11.06 -5 8 C-4.34 8 -3.68 8 -3 8 C-3.33 6.35 -3.66 4.7 -4 3 C-2.68 2.01 -1.36 1.02 0 0 Z " fill="#141616" transform="translate(85,81)"/>
<path d="M0 0 C-1.65 1.65 -3.3 3.3 -5 5 C-4.34 5 -3.68 5 -3 5 C-2.34 6.32 -1.68 7.64 -1 9 C-1.99 9.33 -2.98 9.66 -4 10 C-4 9.01 -4 8.02 -4 7 C-4.55171875 7.17402344 -5.1034375 7.34804688 -5.671875 7.52734375 C-8.36475653 8.07405292 -10.52647404 7.88502281 -13.25 7.5625 C-14.14203125 7.46066406 -15.0340625 7.35882813 -15.953125 7.25390625 C-16.62859375 7.17011719 -17.3040625 7.08632813 -18 7 C-18 6.34 -18 5.68 -18 5 C-15.23944978 3.15963319 -13.25401883 2.31655886 -10.125 1.375 C-8.86042969 0.98441406 -8.86042969 0.98441406 -7.5703125 0.5859375 C-4.95775542 -0.00963022 -2.66958629 -0.10525251 0 0 Z " fill="#2F363A" transform="translate(93,36)"/>
<path d="M0 0 C0.3046875 2.2890625 0.3046875 2.2890625 0 5 C-2.1171875 6.8359375 -2.1171875 6.8359375 -4.875 8.375 C-5.77992187 8.89835937 -6.68484375 9.42171875 -7.6171875 9.9609375 C-8.40351562 10.30382812 -9.18984375 10.64671875 -10 11 C-10.66 10.67 -11.32 10.34 -12 10 C-12.625 7.4375 -12.625 7.4375 -13 5 C-11.730447 4.35165346 -10.45930294 3.70642185 -9.1875 3.0625 C-8.47980469 2.70285156 -7.77210937 2.34320313 -7.04296875 1.97265625 C-4.66983249 0.84280744 -2.65322674 0 0 0 Z " fill="#242728" transform="translate(74,100)"/>
<path d="M0 0 C-0.33 1.32 -0.66 2.64 -1 4 C-2.27875 4.268125 -3.5575 4.53625 -4.875 4.8125 C-10.00062417 5.9451896 -14.99289488 7.43201301 -20 9 C-20.33 7.35 -20.66 5.7 -21 4 C-17.87569239 3.33006007 -14.75044614 2.66460636 -11.625 2 C-10.73554687 1.80921875 -9.84609375 1.6184375 -8.9296875 1.421875 C-8.07890625 1.24140625 -7.228125 1.0609375 -6.3515625 0.875 C-5.56604004 0.70742188 -4.78051758 0.53984375 -3.97119141 0.3671875 C-2 0 -2 0 0 0 Z " fill="#7D8285" transform="translate(95,32)"/>
<path d="M0 0 C0.33 0 0.66 0 1 0 C1.33 2.31 1.66 4.62 2 7 C2.66 6.34 3.32 5.68 4 5 C4 6.65 4 8.3 4 10 C4.66 10.33 5.32 10.66 6 11 C5.01 11 4.02 11 3 11 C3.33 11.66 3.66 12.32 4 13 C5.98 13 7.96 13 10 13 C9.67 13.66 9.34 14.32 9 15 C7.66923011 15.34342449 6.33568021 15.67619874 5 16 C4.34 16.66 3.68 17.32 3 18 C1.68 17.34 0.36 16.68 -1 16 C-0.79375 15.4225 -0.5875 14.845 -0.375 14.25 C0.24037214 11.99255462 0.24037214 11.99255462 -1 10.1875 C-2.48453471 6.94008032 -1.7092378 4.41723669 -1 1 C-0.67 0.67 -0.34 0.34 0 0 Z " fill="#0C5776" transform="translate(32,86)"/>
<path d="M0 0 C-2.475 3.465 -2.475 3.465 -5 7 C-5.680625 6.608125 -6.36125 6.21625 -7.0625 5.8125 C-11.29649749 4.64139431 -13.14937286 6.03693518 -17 8 C-17 6.68 -17 5.36 -17 4 C-16.360625 3.87625 -15.72125 3.7525 -15.0625 3.625 C-14.0415625 3.315625 -14.0415625 3.315625 -13 3 C-12.67 2.34 -12.34 1.68 -12 1 C-8.01624339 -0.17169312 -4.12560776 -0.08089427 0 0 Z " fill="#111313" transform="translate(62,54)"/>
<path d="M0 0 C-1.07378906 0.4125 -2.14757812 0.825 -3.25390625 1.25 C-11.44956543 4.53191558 -18.03517798 7.29251421 -23 15 C-24.32 14.67 -25.64 14.34 -27 14 C-21.1355976 6.59671187 -10.2441835 -3.41472783 0 0 Z " fill="#ADAFB0" transform="translate(92,16)"/>
<path d="M0 0 C2.32590854 3.63423209 2.16265833 6.77088331 2 11 C-0.64 11.99 -3.28 12.98 -6 14 C-7.33877662 9.98367013 -6.49049413 7.90367509 -5 4 C-2.9375 2.6875 -2.9375 2.6875 -1 2 C-0.67 1.34 -0.34 0.68 0 0 Z " fill="#0377B1" transform="translate(29,47)"/>
<path d="M0 0 C0.33 0 0.66 0 1 0 C1 2.31 1 4.62 1 7 C0.44570312 7.19335938 -0.10859375 7.38671875 -0.6796875 7.5859375 C-1.40414062 7.84632812 -2.12859375 8.10671875 -2.875 8.375 C-3.59429687 8.63023438 -4.31359375 8.88546875 -5.0546875 9.1484375 C-7.18157994 9.93877783 -7.18157994 9.93877783 -9 12 C-9.33 11.67 -9.66 11.34 -10 11 C-12.00720923 11.28674418 -14.0085944 11.61866701 -16 12 C-16.33 10.35 -16.66 8.7 -17 7 C-12.71 7 -8.42 7 -4 7 C-4 6.34 -4 5.68 -4 5 C-3.34 5 -2.68 5 -2 5 C-1.34 3.35 -0.68 1.7 0 0 Z " fill="#3D5236" transform="translate(68,34)"/>
<path d="M0 0 C5.94 0 11.88 0 18 0 C18 1.32 18 2.64 18 4 C19.32 4 20.64 4 22 4 C22 5.32 22 6.64 22 8 C23.32 8.33 24.64 8.66 26 9 C22.04 9 18.08 9 14 9 C14 7.68 14 6.36 14 5 C14.66 4.67 15.32 4.34 16 4 C16.33 3.01 16.66 2.02 17 1 C11.39 1 5.78 1 0 1 C0 0.67 0 0.34 0 0 Z " fill="#33454E" transform="translate(38,107)"/>
<path d="M0 0 C1.65 0.33 3.3 0.66 5 1 C6.22807018 6.40350877 6.22807018 6.40350877 5.1875 9.125 C4.795625 9.74375 4.40375 10.3625 4 11 C3.62875 11.7425 3.2575 12.485 2.875 13.25 C2.58625 13.8275 2.2975 14.405 2 15 C0.35 14.67 -1.3 14.34 -3 14 C-3 12.68 -3 11.36 -3 10 C-2 10 -1 10 0 10 C0.66 7.03 1.32 4.06 2 1 C1.34 0.67 0.68 0.34 0 0 Z " fill="#787D7F" transform="translate(95,71)"/>
<path d="M0 0 C0.33 1.32 0.66 2.64 1 4 C-6.19379845 6.35658915 -6.19379845 6.35658915 -10.25 4.5625 C-11.1575 4.046875 -12.065 3.53125 -13 3 C-15.29887008 3.19530151 -15.29887008 3.19530151 -17 4 C-17 3.34 -17 2.68 -17 2 C-11.19233704 0.4943096 -6.0018137 -0.21824777 0 0 Z " fill="#006698" transform="translate(66,13)"/>
<path d="M0 0 C0.33 0.66 0.66 1.32 1 2 C-3.894366 8.99195143 -9.95689968 12.24490486 -18 15 C-18.66 14.67 -19.32 14.34 -20 14 C-19.01 13.67 -18.02 13.34 -17 13 C-16.67 12.01 -16.34 11.02 -16 10 C-14.10509505 9.03592555 -12.20536047 8.07961599 -10.27734375 7.18359375 C-6.52827392 5.23510634 -3.29363009 2.62789635 0 0 Z " fill="#A2A2A2" transform="translate(52,36)"/>
<path d="M0 0 C0.33 0 0.66 0 1 0 C1 2.97 1 5.94 1 9 C-1.1464753 8.88655624 -3.29220592 8.75893655 -5.4375 8.625 C-6.63246094 8.55539063 -7.82742187 8.48578125 -9.05859375 8.4140625 C-10.02925781 8.27742188 -10.99992187 8.14078125 -12 8 C-12.33 7.34 -12.66 6.68 -13 6 C-9.37 6 -5.74 6 -2 6 C-2 5.01 -2 4.02 -2 3 C-4.97 3 -7.94 3 -11 3 C-11 2.67 -11 2.34 -11 2 C-7.37 2 -3.74 2 0 2 C0 1.34 0 0.68 0 0 Z " fill="#212821" transform="translate(73,90)"/>
<path d="M0 0 C0.99 0.33 1.98 0.66 3 1 C3 1.66 3 2.32 3 3 C3.66 3.33 4.32 3.66 5 4 C4.01 4.66 3.02 5.32 2 6 C1.27034634 8.56282742 1.27034634 8.56282742 1 11 C-1.31 11 -3.62 11 -6 11 C-2.81818182 2.81818182 -2.81818182 2.81818182 0 0 Z " fill="#2F3436" transform="translate(70,50)"/>
<path d="M0 0 C0.66 0.66 1.32 1.32 2 2 C1.01 2.99 0.02 3.98 -1 5 C-1.66 4.67 -2.32 4.34 -3 4 C-3 6.31 -3 8.62 -3 11 C-3.99 11 -4.98 11 -6 11 C-6 10.34 -6 9.68 -6 9 C-7.65 9 -9.3 9 -11 9 C-8.45675103 3.55018078 -5.53520462 2.25508336 0 0 Z " fill="#363736" transform="translate(52,58)"/>
<path d="M0 0 C0.66 0.33 1.32 0.66 2 1 C-3.75 5 -3.75 5 -6 5 C-6.33 8.63 -6.66 12.26 -7 16 C-8.98 16.66 -10.96 17.32 -13 18 C-9.01651044 5.03247014 -9.01651044 5.03247014 -3.4375 1.625 C-1.7359375 0.820625 -1.7359375 0.820625 0 0 Z " fill="#A9ADB0" transform="translate(63,17)"/>
<path d="M0 0 C0.515625 0.268125 1.03125 0.53625 1.5625 0.8125 C4.66401415 2.32349407 7.82262806 3.65572726 11 5 C10.67 5.66 10.34 6.32 10 7 C8.58344207 7.0272415 7.16672955 7.04650467 5.75 7.0625 C4.56664063 7.07990234 4.56664063 7.07990234 3.359375 7.09765625 C1.09308998 7.00385306 -0.8288895 6.63241063 -3 6 C-1.125 1.125 -1.125 1.125 0 0 Z " fill="#4A4A4A" transform="translate(76,57)"/>
<path d="M0 0 C2.97 0.33 5.94 0.66 9 1 C9 2.32 9 3.64 9 5 C9.99 5.33 10.98 5.66 12 6 C7.28400182 6.92470553 4.32734391 7.22923777 0 5 C0 3.35 0 1.7 0 0 Z " fill="#7A7B7A" transform="translate(80,50)"/>
<path d="M0 0 C3.96 0.33 7.92 0.66 12 1 C8 4 8 4 5.3125 5.5 C2.7031028 6.85099122 2.7031028 6.85099122 2 10 C0.68 8.35 -0.64 6.7 -2 5 C-1.67 4.34 -1.34 3.68 -1 3 C-0.34 3.33 0.32 3.66 1 4 C0.67 2.68 0.34 1.36 0 0 Z " fill="#4C575D" transform="translate(59,99)"/>
<path d="M0 0 C0.66 0.33 1.32 0.66 2 1 C1.67 1.99 1.34 2.98 1 4 C2.65 4.33 4.3 4.66 6 5 C2.42501534 7.3833231 0.28780723 7.92607229 -4 8 C-6.9375 5.5625 -6.9375 5.5625 -9 3 C-4.545 2.505 -4.545 2.505 0 2 C0 1.34 0 0.68 0 0 Z " fill="#4A4A4A" transform="translate(60,44)"/>
<path d="M0 0 C1.37562854 1.28965176 2.70766393 2.62689293 4 4 C4 4.66 4 5.32 4 6 C3.34 6.66 2.68 7.32 2 8 C1.67 8.99 1.34 9.98 1 11 C1.99 11 2.98 11 4 11 C4 12.32 4 13.64 4 15 C2.35 14.67 0.7 14.34 -1 14 C-1.02685938 11.85423363 -1.04633088 9.70837355 -1.0625 7.5625 C-1.07410156 6.36753906 -1.08570312 5.17257813 -1.09765625 3.94140625 C-1 1 -1 1 0 0 Z " fill="#4A4F51" transform="translate(31,43)"/>
<path d="M0 0 C0.99 0.66 1.98 1.32 3 2 C1.23268551 3.3172344 -0.53897761 4.62863588 -2.3125 5.9375 C-3.29863281 6.66839844 -4.28476562 7.39929687 -5.30078125 8.15234375 C-8 10 -8 10 -11 11 C-10.9375 8.8125 -10.9375 8.8125 -10 6 C-6.98671027 3.20360516 -3.89392222 1.29797407 0 0 Z " fill="#7D7F80" transform="translate(52,33)"/>
<path d="M0 0 C1.32 0 2.64 0 4 0 C4.6875 3.3125 4.6875 3.3125 5 7 C3.5625 8.9375 3.5625 8.9375 2 10 C0.68 9.34 -0.64 8.68 -2 8 C-1.125 1.125 -1.125 1.125 0 0 Z " fill="#636363" transform="translate(86,65)"/>
<path d="M0 0 C0.99 0 1.98 0 3 0 C3 2.31 3 4.62 3 7 C2.34 7 1.68 7 1 7 C1.33 8.65 1.66 10.3 2 12 C1.34 11.67 0.68 11.34 0 11 C0 10.34 0 9.68 0 9 C-0.66 9 -1.32 9 -2 9 C-2.33 10.32 -2.66 11.64 -3 13 C-3.33 10.36 -3.66 7.72 -4 5 C-2.68 4.34 -1.36 3.68 0 3 C0 2.01 0 1.02 0 0 Z " fill="#5A5B5A" transform="translate(94,72)"/>
<path d="M0 0 C1.32 0.33 2.64 0.66 4 1 C4.33 2.65 4.66 4.3 5 6 C0.05 6 -4.9 6 -10 6 C-10 5.34 -10 4.68 -10 4 C-6.7 4 -3.4 4 0 4 C0 2.68 0 1.36 0 0 Z " fill="#525557" transform="translate(23,30)"/>
<path d="M0 0 C-1.875 3.875 -1.875 3.875 -3 5 C-2.01 5.33 -1.02 5.66 0 6 C0 7.65 0 9.3 0 11 C-1.66611905 11.042721 -3.33382885 11.04063832 -5 11 C-6 10 -6 10 -6.3125 7.1875 C-6 4 -6 4 -4.125 1.625 C-2 0 -2 0 0 0 Z " fill="#1A272C" transform="translate(35,21)"/>
<path d="M0 0 C8.96131023 -0.58127418 16.65540325 0.58743357 25 4 C25.66 4.66 26.32 5.32 27 6 C23.25 7.125 23.25 7.125 21 6 C21 5.34 21 4.68 21 4 C17.7 3.67 14.4 3.34 11 3 C11 2.34 11 1.68 11 1 C7.37 1 3.74 1 0 1 C0 0.67 0 0.34 0 0 Z " fill="#06557D" transform="translate(58,11)"/>
<path d="M0 0 C0.5625 1.9375 0.5625 1.9375 1 4 C0.67 4.33 0.34 4.66 0 5 C0.33 5 0.66 5 1 5 C1.58052245 8.00988272 2.05989746 10.92889402 2 14 C0.0625 16.0625 0.0625 16.0625 -2 17 C-2.66 16.34 -3.32 15.68 -4 15 C-3.34 15 -2.68 15 -2 15 C-2 12.03 -2 9.06 -2 6 C-2.66 6 -3.32 6 -4 6 C-4 5.01 -4 4.02 -4 3 C-2.68 2.67 -1.36 2.34 0 2 C0 1.34 0 0.68 0 0 Z " fill="#193A35" transform="translate(81,85)"/>
<path d="M0 0 C0.33 1.32 0.66 2.64 1 4 C-2.65333143 6.63379708 -5.48521602 8.46884894 -10 9 C-10.33 8.34 -10.66 7.68 -11 7 C-10.01 6.67 -9.02 6.34 -8 6 C-7.67 5.01 -7.34 4.02 -7 3 C-3.4375 1.3125 -3.4375 1.3125 0 0 Z " fill="#262828" transform="translate(48,50)"/>
<path d="M0 0 C0.33 0 0.66 0 1 0 C1.1875 2.375 1.1875 2.375 1 5 C0.01 5.66 -0.98 6.32 -2 7 C-2.72382467 9.05925139 -2.72382467 9.05925139 -3 11 C-3.5775 10.814375 -4.155 10.62875 -4.75 10.4375 C-7.20692525 9.95976454 -8.64397534 10.24270636 -11 11 C-10.25 9.0625 -10.25 9.0625 -9 7 C-8.401875 6.87625 -7.80375 6.7525 -7.1875 6.625 C-3.6619402 5.6176972 -2.23270875 2.83614354 0 0 Z " fill="#565656" transform="translate(75,23)"/>
<path d="M0 0 C0.66 0.66 1.32 1.32 2 2 C1.34 2 0.68 2 0 2 C0 2.66 0 3.32 0 4 C-0.99 4.495 -0.99 4.495 -2 5 C-2.99 6.485 -2.99 6.485 -4 8 C-4.99 6.35 -5.98 4.7 -7 3 C-8.32 3.33 -9.64 3.66 -11 4 C-11.33 3.34 -11.66 2.68 -12 2 C-7.88581814 0.00524516 -4.55244646 -0.34358086 0 0 Z " fill="#197DAF" transform="translate(43,58)"/>
<path d="M0 0 C-0.33 2.31 -0.66 4.62 -1 7 C-1.99 7 -2.98 7 -4 7 C-4 6.34 -4 5.68 -4 5 C-5.32 5 -6.64 5 -8 5 C-8.66 4.67 -9.32 4.34 -10 4 C-10 3.34 -10 2.68 -10 2 C-8.7090864 1.66376204 -7.41723903 1.33110751 -6.125 1 C-5.40570313 0.814375 -4.68640625 0.62875 -3.9453125 0.4375 C-2 0 -2 0 0 0 Z " fill="#424647" transform="translate(76,77)"/>
<path d="M0 0 C3.74281699 2.38179263 6.97727468 4.74475735 10 8 C7.36 7.67 4.72 7.34 2 7 C2 6.01 2 5.02 2 4 C1.34 3.67 0.68 3.34 0 3 C0 3.66 0 4.32 0 5 C-1.32 5 -2.64 5 -4 5 C-3.67 3.68 -3.34 2.36 -3 1 C-2.01 1.33 -1.02 1.66 0 2 C0 1.34 0 0.68 0 0 Z " fill="#424F55" transform="translate(93,50)"/>
<path d="M0 0 C0.66 0 1.32 0 2 0 C2.33 0.66 2.66 1.32 3 2 C6.02934491 2.65772428 6.02934491 2.65772428 9 3 C9 2.34 9 1.68 9 1 C9.66 1 10.32 1 11 1 C11.33 2.65 11.66 4.3 12 6 C7.71 5.34 3.42 4.68 -1 4 C-1 1 -1 1 0 0 Z " fill="#222222" transform="translate(81,46)"/>
<path d="M0 0 C2.375 1.25 2.375 1.25 3.375 4.25 C-0.64304691 5.09098656 -3.64303543 5.30404945 -7.625 4.25 C-6.8125 2.3125 -6.8125 2.3125 -5.625 0.25 C-2.625 -0.75 -2.625 -0.75 0 0 Z " fill="#333739" transform="translate(33.625,102.75)"/>
<path d="M0 0 C2 2 2 2 2.1953125 4.3828125 C2.17210937 5.28773437 2.14890625 6.19265625 2.125 7.125 C2.10695313 8.03507812 2.08890625 8.94515625 2.0703125 9.8828125 C2.04710937 10.58148438 2.02390625 11.28015625 2 12 C-1 12 -1 12 -4 10 C-3.67 8.02 -3.34 6.04 -3 4 C-2.34 5.32 -1.68 6.64 -1 8 C-0.67 5.36 -0.34 2.72 0 0 Z " fill="#295A67" transform="translate(43,86)"/>
<path d="M0 0 C0 3 0 3 -1.79296875 5.078125 C-2.58316406 5.79484375 -3.37335938 6.5115625 -4.1875 7.25 C-4.96480469 7.97703125 -5.74210937 8.7040625 -6.54296875 9.453125 C-9 11 -9 11 -11.80078125 10.734375 C-12.52652344 10.49203125 -13.25226562 10.2496875 -14 10 C-11.47082669 7.83213717 -9.37422233 6.1445859 -6.25 4.9375 C-5.5075 4.628125 -4.765 4.31875 -4 4 C-3.67 3.01 -3.34 2.02 -3 1 C-2.01 0.67 -1.02 0.34 0 0 Z " fill="#495358" transform="translate(71,13)"/>
<path d="M0 0 C0 1.32 0 2.64 0 4 C1.32 4 2.64 4 4 4 C4 4.99 4 5.98 4 7 C2.53932801 6.54917531 1.08151968 6.08906463 -0.375 5.625 C-1.18710937 5.36976562 -1.99921875 5.11453125 -2.8359375 4.8515625 C-5 4 -5 4 -7 2 C-4 0 -4 0 0 0 Z " fill="#444444" transform="translate(47,115)"/>
<path d="M0 0 C2.54452069 3.03055273 3.7239002 5.68877218 4.75 9.5 C5.01296875 10.4384375 5.2759375 11.376875 5.546875 12.34375 C5.99880083 14.99297037 5.875264 16.49248692 5 19 C1.57142857 10.57142857 1.57142857 10.57142857 2 6 C1.34 6 0.68 6 0 6 C0 4.02 0 2.04 0 0 Z " fill="#035984" transform="translate(104,37)"/>
<path d="M0 0 C2.3828125 -0.29296875 2.3828125 -0.29296875 5.125 -0.1875 C6.03507812 -0.16042969 6.94515625 -0.13335938 7.8828125 -0.10546875 C8.58148438 -0.07066406 9.28015625 -0.03585938 10 0 C9.67 0.99 9.34 1.98 9 3 C4.545 3.495 4.545 3.495 0 4 C-0.33 4.99 -0.66 5.98 -1 7 C-1.625 5.1875 -1.625 5.1875 -2 3 C-1.34 2.01 -0.68 1.02 0 0 Z " fill="#212222" transform="translate(74,32)"/>
<path d="M0 0 C2.54150417 0.33886722 3.69393283 0.63828425 5.375 2.625 C5.91125 3.07875 6.4475 3.5325 7 4 C10.14921909 3.76716851 10.14921909 3.76716851 13 3 C12.01 5.31 11.02 7.62 10 10 C9.54109375 9.60167969 9.0821875 9.20335937 8.609375 8.79296875 C5.47728415 6.08857938 2.36122541 3.42008229 -1 1 C-0.67 0.67 -0.34 0.34 0 0 Z " fill="#20292C" transform="translate(89,18)"/>
<path d="M0 0 C1.43088528 2.86177057 0.59991697 4.93375773 0 8 C-1.65 8 -3.3 8 -5 8 C-5.33 6.35 -5.66 4.7 -6 3 C-4.02 2.01 -2.04 1.02 0 0 Z " fill="#066997" transform="translate(42,99)"/>
<path d="M0 0 C0 1.32 0 2.64 0 4 C-3.3 4 -6.6 4 -10 4 C-10 3.34 -10 2.68 -10 2 C-6.70021068 -0.19985954 -3.76967739 -1.88483869 0 0 Z " fill="#242424" transform="translate(85,39)"/>
<path d="M0 0 C-0.33 1.32 -0.66 2.64 -1 4 C-1.66 4 -2.32 4 -3 4 C-3 4.66 -3 5.32 -3 6 C-6.63 6.33 -10.26 6.66 -14 7 C-12.02696226 5.02696226 -10.45708131 4.22854066 -8 3 C-7.34 2.34 -6.68 1.68 -6 1 C-6 1.66 -6 2.32 -6 3 C-5.38125 2.505 -4.7625 2.01 -4.125 1.5 C-2 0 -2 0 0 0 Z " fill="#252A23" transform="translate(67,35)"/>
<path d="M0 0 C2.31 0.33 4.62 0.66 7 1 C7 1.66 7 2.32 7 3 C7.66 3.33 8.32 3.66 9 4 C5.535 5.485 5.535 5.485 2 7 C2 5.35 2 3.7 2 2 C0.68 2.33 -0.64 2.66 -2 3 C-1.34 2.01 -0.68 1.02 0 0 Z " fill="#066B9E" transform="translate(72,14)"/>
<path d="M0 0 C2.35171131 0.59861742 4.6859378 1.26924352 7 2 C7.33 2.66 7.66 3.32 8 4 C4.75 5.1875 4.75 5.1875 1 6 C-1.4375 4.625 -1.4375 4.625 -3 3 C-2.01 2.01 -1.02 1.02 0 0 Z " fill="#464645" transform="translate(86,10)"/>
<path d="M0 0 C3.26008643 3.16952847 6.22237877 6.39937989 9 10 C2.41071429 8.53571429 2.41071429 8.53571429 0.5625 6.125 C0 4 0 4 0 0 Z " fill="#3B4C56" transform="translate(96,61)"/>
<path d="M0 0 C1.43931117 0.45261358 2.87638999 0.91232979 4.3125 1.375 C5.11300781 1.63023438 5.91351563 1.88546875 6.73828125 2.1484375 C9 3 9 3 12 5 C5.565 5.495 5.565 5.495 -1 6 C-1 4 -1 4 1 2 C0.67 1.34 0.34 0.68 0 0 Z " fill="#51595D" transform="translate(90,42)"/>
<path d="M0 0 C0 1.98 0 3.96 0 6 C-2.64 6.66 -5.28 7.32 -8 8 C-6.48291727 4.46014029 -4.24676932 0 0 0 Z " fill="#027BB8" transform="translate(91,27)"/>
<path d="M0 0 C3.63 0.33 7.26 0.66 11 1 C11 1.99 11 2.98 11 4 C7.7 4 4.4 4 1 4 C0.67 2.68 0.34 1.36 0 0 Z " fill="#304838" transform="translate(60,92)"/>
<path d="M0 0 C0.33 0.99 0.66 1.98 1 3 C1.66 3 2.32 3 3 3 C3.66 3.33 4.32 3.66 5 4 C5 4.99 5 5.98 5 7 C3.25 7.6875 3.25 7.6875 1 8 C-1.25 6.75 -1.25 6.75 -3 5 C-3 4.01 -3 3.02 -3 2 C-2.01 1.34 -1.02 0.68 0 0 Z " fill="#2B3133" transform="translate(38,67)"/>
<path d="M0 0 C0.33 0.66 0.66 1.32 1 2 C1.99 2 2.98 2 4 2 C3.42415568 4.38564077 2.77772405 6.66682784 2 9 C0.68 8.67 -0.64 8.34 -2 8 C-1.125 1.125 -1.125 1.125 0 0 Z " fill="#222B2F" transform="translate(45,67)"/>
<path d="M0 0 C2.32590854 3.63423209 2.16265833 6.77088331 2 11 C0.68 11 -0.64 11 -2 11 C-2.25 3.375 -2.25 3.375 0 0 Z " fill="#959798" transform="translate(29,47)"/>
<path d="M0 0 C-3.44069624 2.29379749 -4.72290301 3 -9 3 C-9.33 4.32 -9.66 5.64 -10 7 C-10.99 6.67 -11.98 6.34 -13 6 C-5.46629213 -1.95224719 -5.46629213 -1.95224719 0 0 Z " fill="#424E3E" transform="translate(60,38)"/>
<path d="M0 0 C-0.33 0.66 -0.66 1.32 -1 2 C-4.63 2 -8.26 2 -12 2 C-11 0 -11 0 -9.2578125 -0.703125 C-8.55398437 -0.88359375 -7.85015625 -1.0640625 -7.125 -1.25 C-6.42632812 -1.44078125 -5.72765625 -1.6315625 -5.0078125 -1.828125 C-3 -2 -3 -2 0 0 Z " fill="#464646" transform="translate(74,87)"/>
<path d="M0 0 C0.33 0.66 0.66 1.32 1 2 C-0.125 4 -0.125 4 -2 6 C-5.1875 6.25 -5.1875 6.25 -8 6 C-7 3 -7 3 -5.125 1.875 C-3.44294273 1.18238818 -1.72572449 0.5752415 0 0 Z " fill="#4F4F4F" transform="translate(58,59)"/>
<path d="M0 0 C0.99 0.33 1.98 0.66 3 1 C2.34 1 1.68 1 1 1 C0.95101563 1.85464844 0.90203125 2.70929687 0.8515625 3.58984375 C0.77679687 4.69457031 0.70203125 5.79929687 0.625 6.9375 C0.52058594 8.59072266 0.52058594 8.59072266 0.4140625 10.27734375 C0.27742188 11.17582031 0.14078125 12.07429688 0 13 C-0.99 13.495 -0.99 13.495 -2 14 C-2.05437607 12.41705218 -2.09296271 10.83355744 -2.125 9.25 C-2.14820312 8.36828125 -2.17140625 7.4865625 -2.1953125 6.578125 C-1.99139502 3.8864142 -1.36551721 2.30095026 0 0 Z " fill="#035A86" transform="translate(21,43)"/>
<path d="M0 0 C-0.875 4.75 -0.875 4.75 -2 7 C-4.46800047 5.84826645 -6.04783565 4.95216435 -8 3 C-2.25 0 -2.25 0 0 0 Z " fill="#424242" transform="translate(44,46)"/>
<path d="M0 0 C0.5625 1.9375 0.5625 1.9375 1 4 C0.67 4.33 0.34 4.66 0 5 C-2.33333333 5 -4.66666667 5 -7 5 C-7.99 5.495 -7.99 5.495 -9 6 C-9.99 5.01 -10.98 4.02 -12 3 C-11.34 2.67 -10.68 2.34 -10 2 C-9.34 2.33 -8.68 2.66 -8 3 C-7.67 2.34 -7.34 1.68 -7 1 C-6.34 1.66 -5.68 2.32 -5 3 C-2.41645782 3.16687448 -2.41645782 3.16687448 0 3 C0 2.01 0 1.02 0 0 Z " fill="#1D2C19" transform="translate(58,42)"/>
<path d="M0 0 C2.31 0 4.62 0 7 0 C7 1.98 7 3.96 7 6 C5.35 6 3.7 6 2 6 C1.67 5.34 1.34 4.68 1 4 C1.99 3.67 2.98 3.34 4 3 C2.68 2.34 1.36 1.68 0 1 C0 0.67 0 0.34 0 0 Z " fill="#272727" transform="translate(69,44)"/>
<path d="M0 0 C2.475 0.99 2.475 0.99 5 2 C5 3.32 5 4.64 5 6 C3.35 6 1.7 6 0 6 C-1 3 -1 3 0 0 Z " fill="#0173AE" transform="translate(42,101)"/>
<path d="M0 0 C0.99 0 1.98 0 3 0 C3 0.99 3 1.98 3 3 C4.32 3.33 5.64 3.66 7 4 C6.401875 4.0825 5.80375 4.165 5.1875 4.25 C2.400657 5.20548903 1.67123014 6.6450848 0 9 C-0.66 9 -1.32 9 -2 9 C-1.34 6.03 -0.68 3.06 0 0 Z " fill="#1F2729" transform="translate(108,79)"/>
<path d="M0 0 C2.97 0.33 5.94 0.66 9 1 C6.09907498 2.93395001 5.10325263 3.30131941 1.8125 3.625 C0.554375 3.74875 -0.70375 3.8725 -2 4 C-1.34 2.68 -0.68 1.36 0 0 Z " fill="#636363" transform="translate(68,75)"/>
<path d="M0 0 C2 3.75 2 3.75 2 6 C-0.97 5.67 -3.94 5.34 -7 5 C-4.49183541 2.49183541 -3.09162264 1.38589981 0 0 Z " fill="#272726" transform="translate(67,44)"/>
<path d="M0 0 C-0.33 1.32 -0.66 2.64 -1 4 C-3.31 4.66 -5.62 5.32 -8 6 C-6.15596224 0.86303767 -5.73213298 0 0 0 Z " fill="#027DBA" transform="translate(85,24)"/>
<path d="M0 0 C1.65 0.33 3.3 0.66 5 1 C4.67 1.99 4.34 2.98 4 4 C3.34 3.67 2.68 3.34 2 3 C1.67 3.66 1.34 4.32 1 5 C-1.3140622 5.73075648 -3.64828869 6.40138258 -6 7 C-6 6.34 -6 5.68 -6 5 C-4.34467377 3.98133771 -2.67739862 2.98189187 -1 2 C-0.67 1.34 -0.34 0.68 0 0 Z " fill="#4C5457" transform="translate(49,52)"/>
<path d="M0 0 C1.6396875 0.0928125 1.6396875 0.0928125 3.3125 0.1875 C3.3125 1.1775 3.3125 2.1675 3.3125 3.1875 C0.0125 3.1875 -3.2875 3.1875 -6.6875 3.1875 C-3.6875 0.1875 -3.6875 0.1875 0 0 Z " fill="#2D2D2D" transform="translate(65.6875,119.8125)"/>
<path d="M0 0 C1.32 0.66 2.64 1.32 4 2 C4 2.66 4 3.32 4 4 C3.34 4 2.68 4 2 4 C2.33 5.32 2.66 6.64 3 8 C1.68 7.67 0.36 7.34 -1 7 C-0.67 4.69 -0.34 2.38 0 0 Z " fill="#78868C" transform="translate(57,95)"/>
<path d="M0 0 C0.66 0.66 1.32 1.32 2 2 C0.9375 3.5 0.9375 3.5 -1 5 C-4.6875 5.1875 -4.6875 5.1875 -8 5 C-7.34 4.67 -6.68 4.34 -6 4 C-5.67 3.01 -5.34 2.02 -5 1 C-2.625 0.375 -2.625 0.375 0 0 Z " fill="#5A7578" transform="translate(72,81)"/>
<path d="M0 0 C2.31 0.66 4.62 1.32 7 2 C6.34 3.65 5.68 5.3 5 7 C4.01 6.34 3.02 5.68 2 5 C2 4.34 2 3.68 2 3 C1.34 3 0.68 3 0 3 C0 2.01 0 1.02 0 0 Z " fill="#0479B5" transform="translate(98,69)"/>
<path d="M0 0 C1.65 0.33 3.3 0.66 5 1 C4.01 2.98 3.02 4.96 2 7 C1.67 6.01 1.34 5.02 1 4 C0.01 4 -0.98 4 -2 4 C-1.34 2.68 -0.68 1.36 0 0 Z " fill="#292929" transform="translate(34,50)"/>
<path d="M0 0 C1.98 0 3.96 0 6 0 C5.67 1.32 5.34 2.64 5 4 C3.02 4 1.04 4 -1 4 C-0.67 2.68 -0.34 1.36 0 0 Z " fill="#4E4E4E" transform="translate(16,26)"/>
<path d="M0 0 C0.66 0.33 1.32 0.66 2 1 C0.47005208 2.23697917 -1.05989583 3.47395833 -2.58984375 4.7109375 C-4.13266437 5.9666391 -4.13266437 5.9666391 -5 8 C-6.98 8 -8.96 8 -11 8 C-10.34 7.34 -9.68 6.68 -9 6 C-8.01 6 -7.02 6 -6 6 C-5.67 5.01 -5.34 4.02 -5 3 C-2.5625 1.25 -2.5625 1.25 0 0 Z " fill="#016598" transform="translate(85,105)"/>
<path d="M0 0 C1 3 1 3 -0.21484375 5.48046875 C-0.78332031 6.37378906 -1.35179688 7.26710938 -1.9375 8.1875 C-2.50339844 9.08855469 -3.06929688 9.98960938 -3.65234375 10.91796875 C-4.09707031 11.60503906 -4.54179688 12.29210937 -5 13 C-6 10 -6 10 -5.0625 7.8125 C-4.711875 7.214375 -4.36125 6.61625 -4 6 C-3.34 6 -2.68 6 -2 6 C-1.855625 5.195625 -1.71125 4.39125 -1.5625 3.5625 C-1 1 -1 1 0 0 Z " fill="#035782" transform="translate(105,85)"/>
<path d="M0 0 C1.32 0.99 2.64 1.98 4 3 C3.67 3.99 3.34 4.98 3 6 C2.01 5.01 1.02 4.02 0 3 C-0.78375 3.495 -1.5675 3.99 -2.375 4.5 C-5 6 -5 6 -7 6 C-6 3 -6 3 -2.9375 1.3125 C-1.968125 0.879375 -0.99875 0.44625 0 0 Z " fill="#363636" transform="translate(68,32)"/>
<path d="M0 0 C2.96175123 0.61277612 4.38058783 1.25372522 7 3 C4 5 4 5 1.3125 4.625 C0.549375 4.41875 -0.21375 4.2125 -1 4 C-0.67 2.68 -0.34 1.36 0 0 Z " fill="#2A7492" transform="translate(36,95)"/>
<path d="M0 0 C2.28304899 0.0179485 4.52425196 0.11763285 6.796875 0.33203125 C3.15570727 3.66976834 -0.48919742 4.31068027 -5.203125 5.33203125 C-4.06475685 2.29638286 -3.36675282 0.50740069 0 0 Z " fill="#8C8C8C" transform="translate(57.203125,33.66796875)"/>
<path d="M0 0 C2.05078125 0.03255208 4.1015625 0.06510417 6.15234375 0.09765625 C5.82234375 1.08765625 5.49234375 2.07765625 5.15234375 3.09765625 C3.33984375 3.97265625 3.33984375 3.97265625 1.15234375 4.09765625 C-1.09765625 2.66015625 -1.09765625 2.66015625 -2.84765625 1.09765625 C-1.84765625 0.09765625 -1.84765625 0.09765625 0 0 Z " fill="#0370A6" transform="translate(57.84765625,14.90234375)"/>
<path d="M0 0 C-3.20336822 2.83374881 -5.78087253 3.5205537 -10 4 C-9.67 3.01 -9.34 2.02 -9 1 C-6.04335481 -0.4783226 -3.25770263 -0.06032783 0 0 Z " fill="#636363" transform="translate(71,100)"/>
<path d="M0 0 C0.33 0 0.66 0 1 0 C1 3.3 1 6.6 1 10 C0.34 10 -0.32 10 -1 10 C-2.23076923 4.58461538 -2.23076923 4.58461538 -1.0625 1.625 C-0.5365625 0.820625 -0.5365625 0.820625 0 0 Z " fill="#32657A" transform="translate(32,86)"/>
<path d="M0 0 C0.66 0 1.32 0 2 0 C2 2.31 2 4.62 2 7 C0.35 6.67 -1.3 6.34 -3 6 C-3 4.68 -3 3.36 -3 2 C-2 2 -1 2 0 2 C0 1.34 0 0.68 0 0 Z " fill="#A3A3A3" transform="translate(95,79)"/>
<path d="M0 0 C2.31 0.66 4.62 1.32 7 2 C7 2.66 7 3.32 7 4 C5.02 4.33 3.04 4.66 1 5 C0.67 3.35 0.34 1.7 0 0 Z " fill="#388526" transform="translate(51,41)"/>
<path d="M0 0 C0.99 0.33 1.98 0.66 3 1 C2.01 1.99 1.02 2.98 0 4 C0.66 4.33 1.32 4.66 2 5 C1.67 6.32 1.34 7.64 1 9 C0.01 8.67 -0.98 8.34 -2 8 C-1.125 1.125 -1.125 1.125 0 0 Z " fill="#9D9E9D" transform="translate(86,65)"/>
<path d="M0 0 C2.31 0 4.62 0 7 0 C5.515 1.98 5.515 1.98 4 4 C2.35 3.67 0.7 3.34 -1 3 C-0.67 2.01 -0.34 1.02 0 0 Z " fill="#030303" transform="translate(55,54)"/>
<path d="M0 0 C0.99 0.33 1.98 0.66 3 1 C3.6875 3.0625 3.6875 3.0625 4 5 C2.02 5.66 0.04 6.32 -2 7 C-1.34 4.69 -0.68 2.38 0 0 Z " fill="#95989A" transform="translate(52,28)"/>
<path d="M0 0 C1.65 0 3.3 0 5 0 C5 1.65 5 3.3 5 5 C3.35 5 1.7 5 0 5 C0 3.35 0 1.7 0 0 Z " fill="#3E4B52" transform="translate(30,27)"/>
<path d="M0 0 C0.33 0 0.66 0 1 0 C1 1.65 1 3.3 1 5 C1.66 5.33 2.32 5.66 3 6 C2.01 6 1.02 6 0 6 C0.33 6.99 0.66 7.98 1 9 C-0.32 8.34 -1.64 7.68 -3 7 C-3 6.34 -3 5.68 -3 5 C-2.34 5 -1.68 5 -1 5 C-0.67 3.35 -0.34 1.7 0 0 Z " fill="#245968" transform="translate(35,91)"/>
<path d="M0 0 C0.99 0 1.98 0 3 0 C3 1.65 3 3.3 3 5 C1.35 4.67 -0.3 4.34 -2 4 C-1.34 2.68 -0.68 1.36 0 0 Z " fill="#949594" transform="translate(86,43)"/>
<path d="M0 0 C3 2 3 2 3.75 4 C4 6 4 6 3 8 C2.34 8 1.68 8 1 8 C0.26919734 6.02253397 -0.39421747 4.01927511 -1 2 C-0.67 1.34 -0.34 0.68 0 0 Z " fill="#13668E" transform="translate(26,26)"/>
<path d="M0 0 C0.433125 0.9590625 0.433125 0.9590625 0.875 1.9375 C1.82823451 4.15206079 1.82823451 4.15206079 4 5 C4.33 3.68 4.66 2.36 5 1 C5 2.65 5 4.3 5 6 C2.69 5.67 0.38 5.34 -2 5 C-1.34 3.35 -0.68 1.7 0 0 Z " fill="#40403F" transform="translate(83,69)"/>
<path d="M0 0 C2.125 0.9375 2.125 0.9375 4 2 C2.71349294 2.69710731 1.42059335 3.38242876 0.125 4.0625 C-0.95394531 4.63677734 -0.95394531 4.63677734 -2.0546875 5.22265625 C-2.69664063 5.47917969 -3.33859375 5.73570313 -4 6 C-4.66 5.67 -5.32 5.34 -6 5 C-5.01 4.67 -4.02 4.34 -3 4 C-2.67 3.01 -2.34 2.02 -2 1 C-1.34 0.67 -0.68 0.34 0 0 Z " fill="#848789" transform="translate(38,45)"/>
<path d="M0 0 C2.64 0 5.28 0 8 0 C5.3144406 2.6855594 2.62378672 3.06049974 -1 4 C-0.67 2.68 -0.34 1.36 0 0 Z " fill="#8A8B8A" transform="translate(77,43)"/>
<path d="M0 0 C-2.55068845 2.35448165 -3.71017358 2.98327924 -7.25 3.1875 C-8.1575 3.125625 -9.065 3.06375 -10 3 C-9 1 -9 1 -6.125 -0.1875 C-3 -1 -3 -1 0 0 Z " fill="#64747C" transform="translate(87,28)"/>
<path d="M0 0 C1.08667969 0.01804687 2.17335938 0.03609375 3.29296875 0.0546875 C4.54013672 0.08949219 4.54013672 0.08949219 5.8125 0.125 C5.4825 1.115 5.1525 2.105 4.8125 3.125 C4.1525 2.795 3.4925 2.465 2.8125 2.125 C0.77194995 2.05434383 -1.27084257 2.04078024 -3.3125 2.0625 C-4.40820312 2.07152344 -5.50390625 2.08054687 -6.6328125 2.08984375 C-7.89738281 2.10724609 -7.89738281 2.10724609 -9.1875 2.125 C-5.66070901 -0.22619399 -4.15870515 -0.08943452 0 0 Z " fill="#01608F" transform="translate(63.1875,11.875)"/>
<path d="M0 0 C0 0.99 0 1.98 0 3 C-3.11257569 3 -5.10765685 2.82638376 -8 2 C-5.14066998 -0.85933002 -3.8625627 -1.2875209 0 0 Z " fill="#637884" transform="translate(39,59)"/>
<path d="M0 0 C1.98 0 3.96 0 6 0 C6 1.32 6 2.64 6 4 C4.35 3.67 2.7 3.34 1 3 C0.67 2.01 0.34 1.02 0 0 Z " fill="#1C6376" transform="translate(72,50)"/>
<path d="M0 0 C0.66 0 1.32 0 2 0 C2.33 1.65 2.66 3.3 3 5 C0.36 4.67 -2.28 4.34 -5 4 C-4.360625 3.71125 -3.72125 3.4225 -3.0625 3.125 C-0.84793921 2.17176549 -0.84793921 2.17176549 0 0 Z " fill="#2C2E2F" transform="translate(90,47)"/>
<path d="M0 0 C0.33 0.66 0.66 1.32 1 2 C1.99 2.33 2.98 2.66 4 3 C3.01 4.32 2.02 5.64 1 7 C0.34 6.34 -0.32 5.68 -1 5 C-0.625 2.375 -0.625 2.375 0 0 Z " fill="#6B7678" transform="translate(59,85)"/>
<path d="M0 0 C0.66 0 1.32 0 2 0 C1.125 4.75 1.125 4.75 0 7 C-0.66 7 -1.32 7 -2 7 C-1.125 1.125 -1.125 1.125 0 0 Z " fill="#92A1A5" transform="translate(63,79)"/>
<path d="M0 0 C3.16115776 1.36983503 3.9927092 1.9890638 6 5 C1.25 4.125 1.25 4.125 -1 3 C-0.67 2.01 -0.34 1.02 0 0 Z " fill="#828282" transform="translate(76,57)"/>
<path d="M0 0 C0.33 0.66 0.66 1.32 1 2 C0.67 2.99 0.34 3.98 0 5 C0.33 5.66 0.66 6.32 1 7 C-0.65 7 -2.3 7 -4 7 C-2.92598892 4.08482708 -2.22189824 2.22189824 0 0 Z " fill="#323232" transform="translate(68,54)"/>
<path d="M0 0 C0.33 0 0.66 0 1 0 C1 2.31 1 4.62 1 7 C-0.32 6.34 -1.64 5.68 -3 5 C-2.03114628 3.31503702 -1.03013277 1.64821244 0 0 Z " fill="#3E3E3D" transform="translate(70,54)"/>
<path d="M0 0 C0.99 0.66 1.98 1.32 3 2 C1.02 2.99 -0.96 3.98 -3 5 C-3 4.34 -3 3.68 -3 3 C-3.66 2.67 -4.32 2.34 -5 2 C-2.6875 0.875 -2.6875 0.875 0 0 Z " fill="#6A6D6E" transform="translate(52,33)"/>
<path d="M0 0 C2.64 0 5.28 0 8 0 C8.33 1.32 8.66 2.64 9 4 C8.01 4 7.02 4 6 4 C6 3.01 6 2.02 6 1 C4.02 1 2.04 1 0 1 C0 0.67 0 0.34 0 0 Z " fill="#176B95" transform="translate(58,13)"/>
</svg>
